<?xml version="1.0" standalone="no"?>
<!DOCTYPE svg PUBLIC "-//W3C//DTD SVG 20010904//EN"
 "http://www.w3.org/TR/2001/REC-SVG-20010904/DTD/svg10.dtd">
<svg version="1.0" xmlns="http://www.w3.org/2000/svg"
 width="6257.000000pt" height="6256.000000pt" viewBox="0 0 6257.000000 6256.000000"
 preserveAspectRatio="xMidYMid meet">

<g transform="translate(0.000000,6256.000000) scale(0.100000,-0.100000)"
fill="currentColor" >
<path d="M37032 58523 c-12 -10 -86 -126 -165 -258 -472 -788 -809 -1248
-1207 -1646 -239 -239 -435 -399 -675 -549 -787 -493 -1655 -592 -2770 -316
-436 108 -788 228 -1705 581 -724 279 -1153 419 -1591 520 -931 216 -1697 183
-2359 -100 -527 -225 -994 -642 -1384 -1237 -277 -423 -456 -796 -887 -1848
-420 -1029 -767 -1636 -1178 -2062 l-86 -89 -105 103 c-328 322 -662 508
-1025 570 -167 28 -412 22 -561 -16 -267 -67 -455 -173 -627 -356 -140 -149
-238 -309 -289 -470 -29 -93 -31 -239 -4 -310 92 -245 428 -383 936 -384 204
0 323 14 520 64 383 97 767 297 1089 569 l54 46 29 -35 c165 -197 387 -587
507 -890 220 -557 341 -1215 341 -1850 -1 -1317 -511 -2648 -1382 -3612 -56
-62 -159 -174 -228 -249 -526 -567 -700 -879 -766 -1379 -22 -170 -15 -519 15
-705 62 -387 203 -804 412 -1225 122 -245 203 -384 347 -596 582 -858 1356
-1403 2166 -1525 103 -16 193 -22 332 -23 176 -1 194 1 213 18 23 21 28 75 9
94 -8 8 -61 12 -173 12 -506 0 -954 141 -1410 445 -311 208 -652 539 -917 891
-358 475 -656 1083 -792 1614 -172 672 -113 1245 175 1717 96 156 222 309 503
607 226 239 293 315 420 475 1007 1262 1416 2972 1086 4534 -139 655 -382
1219 -723 1675 l-70 94 95 96 c423 431 745 984 1158 1992 365 892 433 1048
590 1359 343 679 686 1119 1135 1456 349 262 733 429 1150 500 633 107 1333
29 2233 -249 257 -80 552 -186 1116 -403 1001 -384 1447 -526 1946 -617 421
-77 882 -96 1225 -52 743 98 1375 428 1991 1041 384 383 730 841 1146 1520
175 284 238 395 238 416 0 19 -45 59 -65 59 -7 0 -22 -8 -33 -17z m-15264
-6443 c315 -33 571 -143 859 -366 94 -73 305 -273 301 -285 -7 -19 -185 -158
-306 -240 -317 -213 -699 -358 -1057 -400 -140 -17 -422 -6 -546 20 -184 40
-339 102 -398 162 -56 56 -74 104 -79 209 -8 199 83 398 262 575 250 245 600
363 964 325z"/>
<path d="M31825 52754 c-223 -40 -399 -110 -694 -277 -155 -87 -306 -159 -394
-186 -121 -37 -206 -42 -434 -25 -376 28 -536 -2 -751 -142 -181 -118 -317
-249 -588 -570 -914 -1077 -1744 -2292 -2422 -3545 -118 -216 -130 -255 -92
-282 19 -13 15 -19 -97 -123 -65 -60 -199 -185 -298 -279 -99 -93 -292 -275
-430 -404 -299 -281 -410 -393 -476 -481 -57 -75 -139 -231 -139 -264 0 -42
60 -72 97 -48 7 4 24 35 38 67 66 150 182 289 414 497 80 72 256 236 391 363
408 386 786 734 1151 1060 86 77 216 197 291 266 283 263 431 356 634 398 45
9 89 23 98 30 19 16 21 72 4 89 -32 32 -205 -4 -343 -73 -153 -76 -327 -218
-909 -745 -136 -124 -260 -234 -274 -244 l-25 -20 25 45 c14 24 76 136 138
249 538 977 1193 1960 1910 2865 91 116 220 280 287 365 427 549 722 773 1077
820 69 10 123 9 283 -5 223 -19 339 -15 459 15 95 24 167 58 401 186 351 192
526 258 753 284 209 24 409 -30 604 -163 62 -42 244 -196 286 -242 25 -27 24
-27 -20 4 -54 37 -125 50 -155 28 -35 -26 -26 -128 22 -272 87 -256 139 -372
376 -828 76 -146 65 -208 -74 -415 -268 -399 -605 -755 -987 -1045 -107 -81
-115 -86 -175 -92 -114 -11 -828 -64 -1147 -85 -742 -49 -1133 -98 -1505 -190
-271 -67 -513 -153 -724 -260 -115 -57 -136 -81 -107 -124 29 -46 51 -42 206
33 316 153 636 245 1090 315 221 34 492 60 990 96 228 16 883 67 1455 112 693
55 1093 82 1200 83 154 0 162 -1 220 -28 40 -18 79 -47 117 -88 60 -65 80 -69
120 -30 16 15 34 10 265 -65 136 -45 770 -280 1408 -521 638 -242 1250 -473
1360 -513 272 -99 522 -198 690 -276 407 -187 724 -416 929 -672 32 -40 69
-75 81 -78 28 -7 61 9 76 37 16 31 -40 108 -186 254 -314 316 -671 515 -1451
811 -151 57 -283 108 -293 114 -11 5 -22 23 -26 39 -11 51 -78 144 -150 206
-37 33 -130 123 -206 200 -75 78 -224 217 -329 310 -190 169 -198 177 -933
1025 -407 470 -746 858 -751 863 -6 4 -24 6 -41 5 -22 -2 -34 -11 -46 -35
l-15 -31 -142 120 c-129 109 -141 122 -135 146 5 23 -38 69 -498 524 -277 274
-542 533 -589 575 -168 151 -324 234 -499 267 -102 20 -286 19 -396 0z m4438
-4065 c63 -15 98 -29 115 -46 13 -13 22 -27 19 -29 -5 -5 -246 82 -256 92 -10
9 37 3 122 -17z"/>
<path d="M26849 47602 c-17 -14 -22 -28 -21 -57 1 -37 -5 -45 -137 -179 -173
-175 -1339 -1453 -1353 -1483 -8 -17 -7 -28 6 -48 21 -32 42 -41 71 -29 12 5
305 320 650 699 346 380 684 747 752 817 123 126 154 172 155 231 2 58 -74 88
-123 49z"/>
<path d="M32002 47545 c-160 -20 -383 -68 -564 -120 -85 -24 -253 -69 -374
-99 -277 -70 -498 -136 -944 -286 -1132 -378 -1893 -745 -2525 -1217 -173
-129 -299 -237 -558 -475 -364 -336 -536 -524 -636 -695 -19 -32 -69 -107
-111 -168 -92 -133 -259 -394 -289 -452 -12 -24 -42 -93 -68 -155 -180 -439
-218 -734 -159 -1218 14 -118 38 -300 52 -405 18 -133 28 -253 31 -401 6 -247
-7 -359 -62 -521 -19 -55 -35 -108 -35 -115 0 -21 43 -58 68 -58 36 0 61 53
112 235 l28 100 50 -107 c28 -58 166 -371 308 -695 218 -498 481 -1087 643
-1435 22 -49 43 -88 46 -88 3 0 54 16 112 36 64 21 116 33 130 29 31 -7 29
-25 -3 -25 -93 0 -506 -187 -745 -337 -253 -159 -511 -365 -747 -598 -113
-111 -132 -134 -132 -161 0 -17 8 -38 18 -47 31 -28 63 -20 109 25 38 37 43
39 43 21 0 -25 35 -53 65 -53 12 0 70 38 130 85 136 106 343 254 387 277 125
65 575 148 801 148 112 0 113 -10 9 -110 -106 -102 -232 -184 -457 -295 -434
-214 -816 -326 -922 -271 -32 16 -36 23 -48 84 -11 53 -67 70 -106 31 -17 -17
-20 -30 -17 -68 11 -107 69 -163 190 -180 158 -22 399 35 703 166 572 248 832
450 976 759 46 97 62 168 49 215 -31 109 -174 145 -371 95 -285 -73 -667 -291
-1159 -663 l-125 -94 75 72 c152 146 393 337 570 451 299 192 629 330 790 330
123 0 183 -38 273 -171 77 -116 106 -149 161 -183 65 -41 71 -42 256 -42 144
0 165 3 300 36 242 61 363 112 521 220 135 91 225 173 488 440 l244 248 76 0
c269 0 530 93 779 276 85 63 102 80 102 102 0 35 -10 49 -41 61 -31 11 -37 9
-159 -79 -143 -103 -271 -164 -420 -200 -78 -19 -190 -36 -190 -28 0 9 227
188 335 263 350 245 699 406 1070 495 128 31 151 46 140 90 -8 32 -31 50 -65
50 -14 0 -79 -13 -145 -30 -491 -121 -997 -399 -1430 -787 l-100 -89 -105 8
c-275 20 -563 104 -841 243 -118 60 -138 62 -165 19 -33 -50 -16 -68 139 -143
260 -126 549 -213 789 -237 l67 -7 -97 -105 c-129 -139 -334 -328 -455 -418
-106 -80 -235 -159 -244 -150 -3 3 -9 63 -14 133 -10 145 -37 340 -50 364 -12
22 -55 32 -80 18 -14 -7 -77 -124 -180 -335 -137 -281 -162 -324 -184 -330
-32 -8 -192 0 -202 9 -4 4 8 42 26 85 84 197 202 549 217 649 l7 45 38 -45
c63 -74 183 -103 230 -56 36 36 6 99 -47 99 -98 0 -181 156 -339 635 -57 171
-185 533 -285 805 -100 272 -210 572 -245 666 -34 94 -70 203 -79 242 -20 88
-20 250 -1 392 36 265 8 503 -88 750 -32 84 -33 85 -69 88 -30 3 -40 -1 -54
-22 -19 -30 -19 -32 35 -186 69 -200 88 -436 51 -631 -20 -105 -28 -242 -18
-318 9 -78 52 -253 87 -353 14 -41 16 -58 8 -58 -7 0 -83 10 -171 21 -126 18
-162 26 -176 42 -10 11 -40 23 -67 28 -68 13 -186 73 -222 114 -50 57 -65 133
-116 575 -19 169 -24 248 -19 316 l6 90 70 80 c258 297 410 653 589 1384 70
284 100 374 142 418 29 32 80 57 147 72 30 7 67 19 82 26 38 20 39 19 24 -25
-45 -126 -45 -297 0 -526 22 -109 28 -170 28 -275 l1 -136 -37 -74 c-39 -81
-76 -121 -160 -179 -29 -21 -55 -45 -56 -55 -7 -33 8 -67 34 -76 38 -15 96 20
190 114 179 179 212 365 134 746 -53 259 -45 392 35 549 44 88 94 150 258 323
167 175 215 238 267 343 73 150 115 384 108 602 l-3 101 115 56 115 56 210 -8
210 -7 90 -52 c162 -94 376 -168 647 -224 145 -30 161 -35 309 -111 172 -87
243 -139 234 -169 -8 -23 35 -69 65 -69 25 0 60 34 60 58 1 48 15 47 126 -12
293 -156 438 -311 639 -684 32 -59 61 -73 99 -48 52 34 42 66 -88 279 -129
213 -253 350 -411 456 -81 53 -542 285 -842 422 -148 67 -162 76 -157 96 11
43 -5 62 -89 103 -92 44 -213 75 -332 86 -62 5 -104 17 -188 51 -60 25 -105
49 -100 53 10 10 233 101 423 173 l145 55 120 1 c138 0 258 17 505 71 350 77
483 95 915 120 461 27 1376 -1 1995 -61 492 -47 935 -132 1060 -201 85 -47
235 -153 345 -243 108 -89 358 -325 351 -332 -2 -2 -38 3 -80 11 -95 20 -280
21 -383 1 -43 -8 -123 -29 -178 -47 -122 -40 -456 -204 -740 -363 -138 -77
-249 -132 -325 -159 -101 -37 -117 -46 -130 -73 -11 -22 -37 -44 -90 -73 -89
-50 -110 -67 -110 -90 0 -25 39 -70 60 -70 11 0 114 52 231 116 156 85 242
126 328 154 268 88 728 203 942 235 56 8 119 23 138 32 32 16 36 22 37 57 0
25 6 41 15 44 94 30 187 70 204 87 l20 23 70 -26 c39 -14 88 -25 111 -25 l41
0 6 -106 c8 -126 31 -237 92 -426 24 -77 53 -180 65 -228 11 -48 36 -131 56
-184 47 -127 61 -209 73 -445 16 -303 52 -423 156 -516 50 -44 152 -103 229
-132 l29 -11 -6 -257 c-7 -280 -16 -405 -48 -700 -23 -208 -22 -214 29 -233
40 -15 68 10 76 68 54 417 82 935 68 1281 -7 165 -9 185 -27 198 -27 20 -62
17 -86 -7 -19 -19 -20 -27 -13 -115 4 -62 3 -94 -3 -94 -21 0 -133 82 -163
120 -70 88 -103 205 -115 405 -3 61 -8 127 -11 148 l-6 37 129 -81 c70 -44
152 -104 181 -132 79 -77 104 -139 151 -372 67 -331 124 -469 246 -591 44 -45
93 -83 134 -103 72 -37 190 -65 233 -56 15 4 28 4 28 2 0 -3 -10 -36 -21 -73
-27 -87 -99 -234 -114 -234 -7 0 -24 -9 -38 -20 -22 -17 -25 -28 -26 -79 0
-49 4 -61 24 -79 18 -16 23 -29 20 -49 -2 -16 -7 -66 -9 -112 -4 -69 -10 -95
-37 -147 -43 -86 -123 -181 -211 -250 -40 -32 -95 -78 -123 -102 -57 -51 -133
-92 -170 -92 -36 0 -112 -38 -135 -68 -11 -14 -23 -22 -27 -18 -4 3 -7 82 -6
174 0 98 -4 172 -9 180 -17 20 -73 15 -94 -9 -17 -19 -19 -38 -18 -193 0 -175
13 -280 38 -304 12 -12 12 -22 0 -65 -21 -79 -33 -184 -44 -392 -39 -705 -121
-1077 -311 -1406 -29 -50 -49 -95 -45 -104 7 -19 -19 -19 -167 0 -374 49 -569
163 -716 419 -23 41 -76 158 -117 258 -98 240 -137 317 -207 410 -213 283
-557 456 -970 487 -148 11 -384 -2 -471 -26 -11 -3 19 37 70 93 49 55 123 142
164 194 151 192 228 276 357 387 200 171 264 269 271 416 4 72 1 84 -27 142
-55 112 -184 200 -357 246 -105 27 -290 30 -328 5 -30 -19 -33 -51 -10 -84 14
-20 23 -22 127 -22 184 0 313 -39 401 -120 82 -76 95 -164 41 -272 -38 -75
-85 -128 -214 -237 -146 -124 -195 -176 -362 -386 -199 -249 -300 -340 -462
-415 -194 -90 -445 -77 -607 32 -78 52 -129 117 -216 275 -92 167 -135 218
-294 350 -181 150 -250 226 -302 330 -36 73 -42 93 -42 151 -1 95 39 159 126
203 43 22 53 46 37 83 -45 98 -226 -25 -274 -187 -34 -114 -9 -251 66 -367 49
-76 127 -155 264 -268 144 -120 183 -169 344 -435 l23 -38 -53 8 c-30 4 -121
7 -204 7 -375 -3 -715 -144 -975 -404 -111 -111 -176 -203 -330 -470 -130
-225 -169 -284 -245 -374 -101 -119 -239 -206 -393 -248 -60 -16 -108 -21
-217 -21 -162 -1 -251 15 -420 74 -60 21 -117 39 -126 39 -22 0 -59 -42 -59
-68 0 -12 11 -29 25 -38 41 -26 238 -92 348 -115 129 -28 336 -31 443 -7 170
39 320 125 446 256 98 103 152 180 309 444 146 246 247 386 344 476 174 163
399 274 643 317 116 21 332 21 451 0 52 -9 99 -14 106 -11 7 2 21 -4 30 -14
34 -38 141 -99 216 -124 104 -35 215 -46 330 -33 52 5 112 9 134 8 22 0 81 12
130 29 349 114 674 136 962 64 300 -74 521 -228 685 -478 73 -111 111 -185
195 -380 195 -458 375 -598 878 -681 l39 -7 -54 -34 c-196 -122 -400 -165
-627 -130 -122 18 -202 44 -306 98 -61 32 -87 53 -127 103 -49 62 -129 125
-158 125 -8 0 -89 73 -181 163 -171 168 -261 236 -369 281 -118 50 -182 60
-352 56 -498 -12 -501 -11 -682 247 -31 44 -88 83 -121 83 -34 0 -67 -32 -67
-65 0 -18 11 -32 38 -49 43 -28 91 -78 154 -161 62 -81 94 -110 151 -135 92
-41 168 -50 427 -50 279 0 342 -9 454 -65 77 -38 199 -136 260 -210 l38 -47
-34 -28 c-38 -31 -81 -105 -97 -165 -5 -22 -17 -101 -26 -175 -35 -288 -107
-484 -220 -597 -49 -49 -73 -65 -118 -78 -31 -9 -73 -15 -94 -13 -46 4 -47 8
-62 208 -19 259 -68 398 -173 495 -47 44 -73 59 -130 76 -66 20 -85 22 -252
16 -274 -9 -618 -61 -683 -103 -33 -21 -32 -78 1 -99 22 -15 32 -14 141 15
252 65 486 91 639 71 140 -19 215 -68 265 -175 41 -86 58 -177 75 -384 8 -100
20 -190 25 -200 23 -43 177 -55 284 -22 192 60 327 259 396 588 l17 83 18 -38
c34 -73 109 -165 167 -208 125 -92 237 -100 495 -35 276 69 555 170 793 285
l126 62 -44 14 -44 15 117 73 c64 41 119 71 123 68 3 -4 34 -203 68 -444 123
-859 259 -1583 383 -2028 l19 -70 -32 -21 -32 -21 -67 106 c-36 58 -92 157
-124 218 l-57 113 23 15 c49 35 5 124 -54 109 -28 -7 -39 15 -92 176 -96 291
-122 562 -87 915 36 361 37 544 4 692 l-12 54 -27 -46 c-26 -45 -27 -45 -45
-25 -20 22 -69 27 -82 8 -4 -7 -20 -60 -34 -118 -34 -136 -83 -249 -167 -382
-66 -106 -223 -310 -322 -418 -48 -53 -49 -54 -36 -20 23 58 -14 110 -68 96
-27 -7 -100 -155 -167 -341 -37 -104 -58 -142 -155 -285 -132 -194 -266 -414
-328 -537 -36 -73 -59 -103 -132 -173 -101 -97 -197 -176 -301 -247 l-72 -50
-51 11 c-47 9 -54 8 -66 -9 -8 -10 -14 -33 -14 -50 0 -31 -4 -34 -89 -73 -83
-38 -253 -102 -270 -102 -5 0 -6 11 -3 25 7 37 -22 75 -57 75 -15 0 -82 -11
-147 -24 -300 -61 -767 -119 -974 -120 -202 -1 -309 39 -385 145 -28 39 -41
49 -63 49 -58 0 -79 -58 -43 -116 52 -85 139 -144 256 -174 88 -23 305 -27
495 -10 212 19 244 19 110 0 -225 -33 -560 -37 -895 -11 -154 12 -326 28 -382
37 -249 36 -415 104 -579 236 l-76 61 26 14 c28 15 42 50 31 82 -15 49 -231
89 -333 62 -50 -14 -69 -45 -50 -86 13 -29 6 -28 133 -29 150 -2 154 -5 322
-214 559 -699 1014 -1060 1548 -1232 105 -33 345 -94 350 -88 1 2 -44 62 -100
133 -177 221 -234 334 -235 456 0 54 5 77 28 120 37 70 99 119 153 119 53 0
85 -23 129 -92 l37 -57 24 26 c103 111 331 89 410 -41 36 -58 27 -121 -36
-243 -30 -59 -79 -139 -108 -178 -72 -97 -213 -234 -251 -243 -35 -9 53 -25
482 -87 586 -85 810 -144 1117 -294 358 -176 669 -419 1172 -918 316 -314 365
-392 364 -577 0 -97 -18 -181 -68 -321 -24 -69 -31 -79 -48 -75 -11 3 -54 5
-95 5 -74 0 -77 -1 -280 -99 -348 -167 -373 -180 -435 -227 -58 -43 -63 -44
-90 -33 -40 17 -94 17 -143 0 l-40 -14 -52 86 c-185 305 -454 578 -765 778
-80 51 -104 71 -99 83 14 32 16 131 4 161 -11 27 -10 33 17 67 48 61 95 148
168 308 37 83 83 182 103 220 99 198 95 309 -15 389 -60 43 -117 60 -186 54
-90 -7 -153 -69 -201 -196 -46 -122 -206 -632 -206 -656 0 -19 -8 -27 -34 -36
-37 -12 -100 -74 -111 -110 -5 -17 -12 -20 -28 -16 -369 109 -807 120 -1187
31 -58 -13 -115 -27 -127 -31 -16 -4 -23 -1 -28 16 -11 35 -61 85 -103 104
-32 15 -41 24 -45 52 -8 50 -206 652 -229 697 -57 112 -143 161 -246 139 -104
-22 -179 -84 -201 -168 -22 -81 -4 -128 236 -622 25 -51 65 -120 90 -153 42
-58 44 -62 32 -96 -11 -34 -8 -122 5 -154 5 -11 -4 -20 -31 -33 -21 -10 -81
-46 -133 -80 -282 -185 -542 -451 -710 -729 -30 -49 -56 -90 -60 -92 -3 -2
-26 1 -52 7 -37 9 -56 8 -93 -5 l-47 -15 -52 40 c-28 21 -112 69 -186 105 -74
36 -198 96 -275 133 -217 106 -298 121 -381 69 -38 -23 -89 -92 -100 -133 -3
-14 -9 -28 -13 -30 -3 -2 -228 311 -499 696 -492 700 -493 701 -474 722 12 12
22 44 26 76 4 30 10 71 13 92 4 31 1 39 -22 54 -45 30 -76 11 -100 -62 l-21
-60 -274 389 c-151 214 -279 399 -283 411 -7 16 11 63 78 206 48 102 116 250
151 330 36 79 70 148 77 152 7 4 32 8 57 8 40 1 133 15 228 35 l32 8 0 -139
c0 -241 -27 -791 -46 -946 -5 -38 -2 -50 15 -67 26 -26 72 -27 99 -3 11 9 41
76 67 147 65 179 163 418 253 618 l75 168 94 -100 c96 -102 234 -221 257 -221
23 0 66 41 66 62 0 27 89 391 100 409 10 15 218 -121 594 -388 110 -79 206
-143 214 -143 25 0 50 19 56 44 9 36 -17 85 -115 216 -121 163 -251 351 -362
526 -98 155 -319 535 -314 540 1 2 90 28 197 59 239 68 418 132 429 154 5 9
11 37 15 62 5 37 3 48 -12 62 -20 18 -345 177 -362 177 -5 0 -10 3 -10 6 0 3
60 69 134 147 74 78 178 195 233 259 54 64 100 116 103 117 3 0 55 -62 115
-137 256 -318 557 -672 630 -741 133 -126 261 -167 397 -125 62 18 84 41 73
74 -5 14 11 8 62 -26 75 -51 137 -84 214 -114 47 -19 53 -19 75 -5 17 11 24
25 24 49 0 41 -6 46 -116 100 -113 55 -196 116 -292 217 -42 43 -82 79 -90 79
-22 0 -62 -48 -62 -75 0 -17 21 -47 71 -99 l70 -74 -56 -7 c-123 -16 -215 18
-308 114 -30 31 -206 239 -391 464 l-336 407 93 123 c114 149 240 324 372 517
111 163 180 240 340 377 124 107 196 153 241 153 28 0 31 -3 43 -52 18 -71 47
-138 73 -165 44 -47 231 -58 312 -18 22 11 63 48 95 87 76 93 270 398 271 425
0 31 -26 53 -65 53 -31 0 -38 -7 -98 -92 -35 -51 -92 -136 -127 -188 -103
-156 -133 -180 -220 -180 -66 0 -84 10 -103 59 -28 69 -67 238 -91 393 -16
103 -29 155 -41 168 -21 23 -28 11 79 133 131 149 329 286 530 366 234 93 387
90 471 -11 l27 -32 -23 -7 c-237 -68 -268 -86 -253 -144 11 -46 40 -50 135
-20 270 85 556 103 944 59 235 -27 345 -6 406 79 33 46 53 102 47 137 -6 49
-98 67 -113 22 -8 -25 -161 -132 -188 -132 -13 0 -72 9 -131 20 -231 42 -439
46 -676 13 -25 -3 -42 -2 -38 2 24 26 -89 151 -170 188 -107 48 -287 31 -464
-42 -237 -99 -537 -326 -677 -512 -33 -44 -64 -80 -68 -80 -4 0 -10 8 -14 18
-5 13 -18 -6 -50 -77 -24 -52 -105 -220 -182 -372 -113 -226 -166 -319 -286
-500 -336 -506 -649 -897 -995 -1244 -149 -148 -198 -192 -224 -197 -25 -5
-35 -14 -43 -37 -19 -52 -316 -278 -555 -421 -208 -124 -572 -289 -638 -289
-14 0 -43 -9 -64 -20 -120 -63 -419 -85 -578 -42 -211 56 -509 211 -709 366
-261 205 -436 466 -486 726 -22 117 -25 125 -51 140 -20 11 -34 12 -55 4 -27
-9 -28 -12 -26 -71 2 -95 47 -245 113 -380 186 -380 572 -696 1054 -862 64
-22 152 -47 197 -56 94 -17 280 -20 380 -4 38 6 73 9 78 7 17 -5 -59 -171 -92
-204 -30 -29 -3306 -1661 -5338 -2659 -707 -347 -1267 -632 -1549 -788 -713
-394 -1277 -821 -1728 -1310 -684 -740 -1234 -1636 -1767 -2881 -273 -639
-499 -1233 -982 -2591 -307 -862 -465 -1294 -653 -1785 -607 -1581 -1234
-3076 -1945 -4638 -80 -176 -145 -331 -145 -344 0 -54 76 -79 104 -35 50 75
680 1496 1032 2326 629 1481 1001 2436 1669 4291 771 2141 1022 2769 1426
3570 352 698 700 1239 1120 1740 419 500 915 917 1594 1342 398 249 872 499
1845 973 217 106 1126 556 2020 1000 894 444 1775 881 1957 971 l332 163 -69
-140 c-39 -76 -70 -149 -70 -162 0 -49 70 -76 103 -39 8 9 54 95 101 190 63
127 84 180 80 197 -6 23 16 35 395 225 221 110 401 198 401 196 0 -6 -210
-460 -216 -465 -2 -2 -12 3 -22 12 -26 24 -59 21 -87 -7 -28 -28 -26 -40 16
-101 l27 -40 -24 -45 c-30 -59 -31 -104 -2 -124 36 -25 67 -20 86 14 9 16 20
29 24 27 4 -1 593 -834 1309 -1852 715 -1017 1331 -1890 1369 -1940 208 -275
401 -364 613 -285 43 16 58 27 63 46 8 32 0 49 -31 70 -23 15 -29 15 -68 1
-76 -28 -105 -30 -115 -10 -51 96 -66 625 -24 823 33 152 27 141 66 125 20 -9
62 -13 107 -12 68 2 78 -1 122 -30 26 -17 93 -45 150 -63 161 -50 187 -60 271
-108 108 -62 183 -91 233 -92 39 0 46 -5 95 -61 61 -69 92 -89 143 -89 l35 0
0 -50 c0 -49 -1 -50 -31 -50 -45 0 -67 -15 -134 -87 -57 -61 -65 -67 -134 -84
-46 -12 -113 -41 -178 -78 -57 -32 -171 -85 -254 -117 -160 -62 -187 -81 -175
-129 3 -13 15 -29 25 -35 25 -13 352 -73 546 -100 419 -58 849 -79 1232 -61
476 22 985 86 1288 162 376 95 561 215 828 534 55 66 101 121 102 122 1 2 0
-22 -3 -52 -4 -50 -2 -57 25 -84 69 -68 257 -47 568 66 159 57 259 102 1393
627 590 273 1115 514 1166 535 217 93 381 131 559 131 228 -1 349 -31 1025
-254 1552 -513 3076 -951 4599 -1320 430 -105 438 -106 427 -97 -5 4 -160 128
-344 276 -184 147 -342 275 -350 283 -26 26 434 -285 638 -431 418 -299 640
-483 933 -776 358 -359 577 -658 784 -1072 230 -458 416 -1012 550 -1640 38
-180 38 -180 26 -161 -5 8 -11 -35 -15 -105 -79 -1368 -272 -2862 -552 -4263
-116 -579 -363 -1636 -439 -1880 -56 -176 -122 -278 -229 -355 -88 -62 -187
-106 -426 -185 -332 -111 -627 -186 -1265 -320 -427 -90 -688 -150 -880 -201
-208 -57 -378 -109 -390 -120 -6 -6 9 -28 40 -60 l50 -51 -45 6 c-373 48 -939
69 -1255 46 -642 -47 -995 -165 -1790 -597 -121 -66 -263 -143 -317 -171 l-96
-52 -101 75 c-56 41 -101 79 -101 84 0 4 23 48 51 97 138 238 312 632 408 921
185 556 300 1169 366 1938 19 230 45 666 45 772 0 54 4 86 13 95 7 7 80 103
162 213 563 758 1260 1593 1856 2220 47 49 88 98 92 108 16 42 -31 91 -75 79
-31 -8 -495 -515 -864 -944 -355 -415 -668 -803 -992 -1233 -91 -121 -168
-223 -171 -227 -4 -5 -5 74 -3 175 4 162 2 185 -13 200 -20 21 -54 22 -81 3
-18 -13 -22 -29 -28 -135 l-7 -120 -88 -193 c-380 -829 -782 -1548 -1294
-2312 -285 -425 -349 -499 -509 -581 -106 -55 -173 -80 -668 -246 -826 -278
-1842 -589 -2498 -764 -146 -39 -227 -81 -285 -145 l-48 -53 -172 7 c-1070 42
-1939 147 -2835 342 -601 131 -1087 264 -1874 513 -551 175 -978 293 -1270
352 l-117 23 -6 32 c-3 17 -18 50 -33 72 -39 58 -1099 1088 -1142 1109 -25 13
-59 18 -121 18 -84 0 -87 0 -79 21 14 35 -10 69 -50 72 -19 2 -271 -15 -560
-37 -853 -66 -1000 -74 -1260 -68 -374 8 -593 60 -821 198 -87 52 -112 58
-139 34 -14 -13 -25 -7 -103 57 -64 52 -87 76 -87 94 0 16 -39 66 -120 156
-99 110 -120 138 -120 164 0 41 -30 78 -79 97 -32 13 -58 41 -139 149 -534
713 -905 1566 -1056 2433 -49 284 -86 652 -86 869 0 110 -13 136 -65 136 -25
0 -39 -6 -50 -24 -14 -21 -15 -49 -5 -237 58 -1189 447 -2284 1147 -3231 l95
-128 -46 -52 c-25 -29 -258 -366 -517 -748 -259 -382 -493 -725 -520 -761 -70
-95 -176 -191 -251 -228 -139 -68 -185 -71 -768 -61 -208 4 -231 2 -303 -18
-103 -28 -196 -78 -209 -111 -18 -47 -2 -138 38 -220 31 -65 56 -95 168 -206
73 -71 167 -173 211 -225 43 -52 103 -120 133 -151 l54 -56 -59 -8 c-32 -4
-161 -7 -288 -7 -351 1 -648 34 -1235 137 -1031 182 -1578 249 -2299 285 -223
11 -815 12 -951 2 l-85 -7 38 -24 c21 -13 37 -25 35 -26 -2 -2 -55 7 -118 19
l-115 22 75 8 c73 8 74 9 45 22 -40 18 -123 17 -175 -1 -37 -13 -52 -13 -136
0 -325 53 -569 33 -761 -62 -117 -57 -198 -164 -191 -252 l3 -38 -190 -153
c-1014 -819 -1513 -1428 -1746 -2132 -131 -394 -172 -812 -184 -1843 -4 -286
-22 -1044 -41 -1683 -23 -802 -31 -1170 -24 -1183 24 -44 104 -27 114 24 9 45
67 2241 76 2862 10 667 18 849 51 1150 46 418 108 643 264 960 295 602 762
1110 1718 1869 152 121 160 136 110 189 -33 33 -46 20 117 110 122 68 196 86
355 87 129 0 241 -13 440 -51 209 -39 736 -156 795 -176 25 -8 182 -82 350
-163 465 -226 644 -296 957 -374 334 -84 573 -122 1278 -200 l490 -55 350
-106 c193 -58 470 -144 617 -190 146 -47 379 -116 516 -154 137 -38 277 -81
311 -95 72 -29 184 -106 298 -205 68 -59 82 -67 85 -51 2 17 7 14 27 -16 20
-29 26 -53 31 -121 4 -73 8 -88 29 -104 13 -10 29 -19 36 -19 26 0 44 -110 52
-315 l6 -159 -54 45 c-73 62 -133 102 -218 144 -185 93 -311 124 -946 229
-280 47 -568 97 -640 111 -407 81 -893 205 -1355 345 -345 105 -393 115 -570
115 -175 0 -248 -16 -350 -77 -47 -28 -55 -38 -58 -66 -4 -38 20 -72 49 -72
10 0 47 16 81 35 96 52 180 68 323 62 141 -7 249 -32 510 -117 584 -192 1264
-346 2110 -480 494 -78 609 -106 776 -191 114 -57 161 -90 250 -176 l76 -74
44 7 c24 4 53 17 66 30 20 20 23 34 24 111 1 48 4 77 6 63 2 -14 13 -69 24
-123 11 -55 19 -100 17 -101 -2 -1 -48 -16 -103 -34 -253 -80 -506 -91 -823
-36 -134 23 -337 74 -687 174 -325 92 -517 136 -725 165 -158 22 -563 31 -732
15 -961 -87 -1752 -540 -2540 -1456 -221 -256 -562 -706 -835 -1099 -525 -755
-765 -1090 -781 -1087 -88 16 -107 -4 -121 -123 -14 -116 -42 -161 -115 -182
-130 -38 -241 -176 -309 -388 -73 -225 -73 -437 -2 -840 57 -322 424 -2305
442 -2385 61 -286 168 -435 380 -531 142 -65 487 -200 644 -253 363 -122 724
-193 999 -197 l65 -1 -45 -13 c-156 -44 -1111 -287 -1185 -302 -126 -24 -366
-24 -455 1 -253 69 -473 276 -692 650 -78 135 -197 357 -751 1411 -748 1422
-806 1530 -826 1543 -16 11 -24 11 -48 0 -68 -32 -98 34 549 -1194 328 -621
647 -1235 710 -1364 273 -561 459 -824 712 -1012 239 -178 501 -224 855 -152
120 24 482 116 870 220 196 52 448 120 561 150 703 189 1318 398 1712 582 110
52 130 72 108 111 -9 18 -6 22 27 37 34 14 127 16 845 17 l807 2 -6 -160 c-9
-242 20 -524 62 -605 8 -16 25 -36 36 -44 19 -13 24 -34 41 -168 79 -660 190
-1371 314 -2018 74 -384 165 -814 176 -827 26 -32 108 -3 108 37 0 8 -27 142
-60 299 -159 766 -287 1524 -385 2281 -19 151 -35 284 -35 296 0 21 2 21 43
12 60 -14 292 -3 427 22 63 11 257 36 430 55 448 50 855 102 1645 210 863 118
693 96 4005 520 2993 384 3102 398 3380 416 223 14 607 6 770 -16 307 -42
1017 -213 2000 -481 1881 -514 3983 -1220 5280 -1774 439 -188 934 -425 1293
-620 192 -105 175 -75 152 -270 -35 -299 -66 -709 -81 -1056 -8 -189 -3 -204
55 -204 23 0 44 6 51 15 9 11 16 79 21 218 49 1225 252 2401 620 3601 44 144
68 238 65 252 -7 26 -42 40 -80 30 l-24 -6 15 48 15 47 312 0 c265 1 351 5
576 28 383 39 509 47 750 47 242 0 410 -16 645 -59 333 -62 522 -60 718 8 40
14 161 31 405 56 191 19 410 42 487 51 77 8 239 19 360 24 171 7 259 16 395
39 96 17 250 44 342 60 267 47 347 81 468 201 150 149 621 858 943 1420 156
273 415 789 520 1037 316 743 498 1430 569 2148 21 206 17 821 -5 1020 -36
311 -94 609 -169 868 -34 118 -47 133 -103 123 l-32 -6 -53 142 c-282 769
-546 1709 -705 2518 -15 74 -33 145 -41 157 -19 30 -58 30 -88 0 l-24 -24 -11
56 c-179 876 -316 1849 -391 2761 -72 885 -81 1441 -54 3160 11 669 -19 1100
-116 1681 -120 714 -323 1409 -575 1960 -246 539 -607 1043 -1018 1417 -348
318 -628 525 -1385 1025 -869 575 -1235 860 -1947 1516 -1116 1030 -1623 1358
-3370 2181 -1114 525 -1668 819 -2190 1164 -104 69 -194 127 -198 129 -9 3
-77 228 -77 253 0 8 8 14 18 14 25 0 40 20 92 115 229 424 593 963 943 1398
295 366 748 842 1030 1082 209 178 302 293 346 429 40 123 64 362 81 806 10
255 216 3534 260 4130 69 935 42 1380 -110 1842 -63 191 -69 200 -122 196 -68
-5 -68 -17 -11 -190 120 -356 161 -684 149 -1183 -3 -148 -10 -333 -16 -410
-8 -113 -272 -4222 -311 -4840 -13 -207 -28 -286 -74 -385 -31 -64 -53 -91
-153 -188 -153 -149 -164 -154 -107 -49 89 165 125 290 184 637 197 1157 314
2390 396 4170 62 1367 66 1653 22 1821 -51 194 -135 349 -248 453 -88 82 -177
123 -301 140 l-37 5 -45 -187 c-83 -346 -141 -670 -241 -1347 -31 -209 -79
-515 -106 -680 -42 -249 -52 -328 -56 -465 -6 -205 8 -281 108 -590 155 -474
205 -746 216 -1170 15 -609 -104 -1156 -432 -1985 -46 -115 -351 -844 -678
-1620 -465 -1104 -608 -1434 -659 -1520 -36 -60 -89 -153 -118 -204 -45 -79
-55 -92 -62 -75 -15 33 -105 430 -155 677 -44 217 -47 239 -33 261 8 14 39 63
68 109 74 120 154 285 272 562 150 353 359 756 775 1500 192 344 212 393 191
473 -7 27 -53 121 -103 208 -106 186 -150 273 -226 444 -73 167 -97 247 -97
329 0 88 12 129 113 381 91 229 119 320 137 453 18 131 -4 277 -60 389 -27 56
-28 59 -14 105 38 122 47 191 48 333 0 227 -47 415 -165 660 -160 333 -391
642 -875 1170 -93 102 -252 280 -353 395 -101 116 -279 305 -396 422 -116 116
-206 209 -200 206 25 -14 -17 19 -105 84 -360 263 -925 582 -1280 722 -278
109 -542 184 -786 221 -182 28 -528 36 -692 15z m-3648 -1512 c-18 -225 -50
-359 -117 -487 -41 -80 -126 -194 -187 -251 -29 -28 -27 -21 29 85 100 192
190 416 246 613 15 53 29 97 31 97 1 0 0 -26 -2 -57z m5926 -184 c0 -3 -46
-16 -102 -29 -56 -12 -109 -24 -118 -27 -8 -2 30 20 85 51 l100 55 17 -22 c10
-12 18 -25 18 -28z m-7643 -2836 c-2 -21 -4 -4 -4 37 0 41 2 58 4 38 2 -21 2
-55 0 -75z m9302 -1010 c-34 -58 -49 -78 -49 -70 0 21 54 107 67 107 3 0 -6
-17 -18 -37z m-391 -2179 c28 -19 28 -27 -2 -59 l-24 -25 -6 22 c-8 32 -7 78
2 78 4 0 18 -7 30 -16z m-4869 -299 l0 -20 -9 20 c-5 11 -9 29 -9 40 l0 20 9
-20 c5 -11 9 -29 9 -40z m-2187 -542 c4 -72 4 -73 -26 -83 -16 -5 -32 -10 -37
-10 -8 0 3 46 34 140 23 69 24 66 29 -47z m6543 -836 c30 -30 65 -114 65 -155
0 -8 10 -30 21 -49 33 -54 37 -146 9 -233 -23 -70 -23 -72 -4 -90 19 -19 22
-17 184 75 91 52 167 95 170 95 7 0 54 -110 49 -114 -2 -1 -87 -50 -188 -107
l-183 -104 6 -75 c19 -212 120 -771 151 -830 9 -18 15 -46 13 -62 -5 -34 -6
-33 94 -74 42 -18 121 -55 174 -83 58 -30 101 -48 107 -42 5 5 13 57 18 117
10 101 8 184 -7 355 -7 73 7 99 52 99 l24 0 0 182 0 181 59 -85 c49 -70 65
-106 100 -218 36 -113 41 -140 36 -184 -11 -81 -33 -168 -65 -260 -17 -47 -36
-118 -44 -157 -13 -68 -12 -74 5 -93 26 -28 24 -40 -15 -84 -22 -24 -48 -72
-70 -133 -31 -85 -78 -197 -139 -334 -36 -80 -110 -187 -160 -231 -35 -31 -47
-49 -47 -70 0 -36 -36 -74 -71 -74 -15 0 -30 4 -34 9 -10 17 -68 41 -85 36
-22 -7 -70 31 -70 56 0 12 -14 26 -40 39 -33 17 -59 20 -154 20 -182 0 -251
37 -458 247 -71 71 -126 118 -163 137 -91 47 -156 139 -191 269 -18 69 -18
107 3 129 18 20 68 24 79 7 4 -7 12 1 20 19 16 39 49 58 79 44 12 -6 39 -39
58 -75 51 -91 142 -204 180 -223 39 -20 97 -64 159 -121 25 -23 59 -45 75 -48
15 -4 48 -15 73 -25 89 -35 122 -34 213 6 45 19 86 39 90 44 5 4 -12 81 -37
170 -25 90 -46 170 -46 177 0 9 -6 12 -18 8 -34 -10 -392 251 -450 329 -20 27
-23 40 -20 97 3 57 12 82 75 210 54 107 80 174 103 264 17 66 29 127 28 136
-2 13 -37 -3 -162 -74 -151 -87 -159 -90 -184 -76 -14 8 -30 27 -35 42 -11 34
4 54 67 90 23 13 73 43 113 66 l72 41 -24 26 c-52 56 -56 181 -9 322 13 40 24
84 24 99 0 15 11 54 23 87 13 34 32 83 42 109 36 99 121 176 194 177 24 0 42
-9 66 -33z m-5778 -1013 c-4 -4 -442 -133 -454 -134 -2 0 -12 18 -23 39 l-20
39 28 6 c157 32 486 67 469 50z m7288 -571 c408 -246 913 -505 1775 -912 848
-401 1316 -640 1695 -866 166 -99 298 -185 195 -127 -438 247 -1186 623 -1741
875 -267 122 -750 330 -877 378 -42 16 -71 35 -88 57 -24 31 -55 41 -80 24 -7
-4 -56 -88 -109 -187 -151 -280 -65 -151 -1009 -1515 -474 -686 -865 -1232
-907 -1267 -12 -9 -14 -3 -15 37 -2 60 -35 134 -79 180 l-33 35 105 150 c489
693 913 1325 1174 1748 l97 158 39 -57 c21 -32 46 -62 55 -68 26 -15 71 4 82
36 8 23 2 39 -44 115 -29 48 -53 93 -53 98 0 6 22 46 48 90 26 44 94 163 151
264 l104 185 -73 21 c-194 57 -339 179 -640 536 -160 190 -192 232 -202 267
-5 18 22 4 137 -72 79 -51 211 -134 293 -183z m-3958 241 c-3 -3 -12 -4 -19
-1 -8 3 -5 6 6 6 11 1 17 -2 13 -5z m-54 -11 c-7 -2 -21 -2 -30 0 -10 3 -4 5
12 5 17 0 24 -2 18 -5z m-60 -10 c-7 -2 -21 -2 -30 0 -10 3 -4 5 12 5 17 0 24
-2 18 -5z m-3858 -194 c130 -134 291 -320 346 -401 22 -32 49 -62 60 -69 11
-6 19 -13 16 -15 -2 -3 -109 64 -238 147 -129 83 -257 166 -284 184 l-50 32
-24 144 c-13 79 -26 151 -29 159 -9 24 85 -60 203 -181z m3798 184 c-7 -2 -21
-2 -30 0 -10 3 -4 5 12 5 17 0 24 -2 18 -5z m-75 -10 c-10 -2 -26 -2 -35 0
-10 3 -2 5 17 5 19 0 27 -2 18 -5z m-70 -10 c-10 -2 -26 -2 -35 0 -10 3 -2 5
17 5 19 0 27 -2 18 -5z m-4118 -75 c-1 -2 -50 -194 -110 -428 l-109 -425 0
350 c-1 193 -4 360 -7 372 -5 19 6 28 102 77 99 50 125 61 124 54z m-510 -419
c0 -5 -12 -9 -27 -9 -26 0 -26 1 -8 14 20 14 35 12 35 -5z m825 -263 l23 -100
-79 83 -79 83 42 80 43 80 13 -63 c8 -35 24 -109 37 -163z m4958 -1062 c3 -4
2 -15 -4 -26 -8 -14 -7 -28 1 -49 11 -26 10 -34 -14 -69 -14 -22 -26 -47 -26
-55 0 -25 19 -55 35 -55 24 0 18 -21 -32 -100 -25 -41 -77 -138 -114 -215 -37
-77 -81 -159 -98 -183 -31 -42 -32 -42 -61 -27 -66 34 -65 92 4 275 26 68 60
175 77 238 36 139 78 226 122 252 31 19 97 27 110 14z m-2620 -23 c2 -10 17
-25 33 -32 23 -11 32 -25 41 -63 14 -57 26 -67 72 -64 l34 3 28 -105 c15 -58
44 -148 64 -200 39 -102 75 -223 75 -253 0 -21 -53 -47 -81 -40 -36 10 -85 80
-138 198 -30 66 -76 154 -102 196 -121 195 -142 287 -77 356 26 28 44 29 51 4z
m8055 -335 c48 -18 146 -63 218 -99 280 -140 436 -243 979 -646 330 -245 472
-340 760 -511 886 -526 1345 -828 1755 -1155 145 -115 150 -120 150 -156 0
-30 -30 -69 -54 -69 -8 0 -60 37 -117 83 -406 326 -846 621 -1609 1077 -440
263 -558 342 -962 642 -571 423 -840 590 -1143 707 -61 24 -118 50 -127 59
-37 32 -10 102 39 102 13 0 63 -15 111 -34z m-5798 -562 c-6 -15 -6 -34 0 -49
5 -14 7 -25 5 -25 -2 0 -30 11 -61 25 -55 24 -56 26 -42 47 22 34 56 48 84 36
19 -9 21 -15 14 -34z m-1875 18 c3 -11 18 -24 32 -31 27 -12 27 -13 -42 -42
-38 -16 -72 -29 -76 -29 -9 0 -20 57 -13 73 5 14 60 45 81 46 6 1 14 -7 18
-17z m1227 -126 c218 -34 406 -94 613 -196 734 -361 1204 -1097 1209 -1892 1
-145 -1 -159 -19 -177 l-20 -20 3 122 c7 224 -29 459 -105 690 -224 684 -791
1217 -1482 1392 -191 48 -282 59 -511 59 -181 0 -236 -4 -345 -23 -488 -86
-920 -322 -1234 -672 -219 -245 -374 -548 -460 -900 -55 -229 -65 -321 -66
-591 0 -137 -3 -248 -6 -248 -41 0 -50 467 -14 680 77 454 275 841 595 1160
349 350 815 573 1311 629 113 13 411 5 531 -13z m-7 -249 c123 -24 215 -48
215 -59 0 -5 -7 -22 -15 -38 -11 -22 -14 -54 -11 -127 3 -96 2 -99 -26 -133
-19 -24 -44 -82 -75 -180 -29 -94 -63 -175 -95 -232 -57 -101 -97 -193 -98
-225 0 -20 -24 -48 -109 -126 -20 -19 -33 -42 -37 -68 -6 -38 -7 -39 -49 -39
-42 0 -43 0 -54 46 -7 27 -24 57 -40 73 -16 14 -42 39 -59 54 -19 18 -32 42
-36 66 -3 21 -39 106 -80 188 -41 83 -90 202 -111 269 -42 134 -63 179 -97
211 -22 21 -24 29 -21 114 2 67 -1 98 -13 121 -12 24 -13 32 -3 38 16 11 203
50 286 60 102 13 435 4 528 -13z m392 -143 c46 -18 53 -35 28 -68 -15 -20 -16
-20 -60 2 -50 24 -64 44 -45 67 16 19 24 19 77 -1z m-1382 -26 c9 -37 -8 -54
-63 -64 -27 -5 -38 -3 -48 11 -18 24 -9 38 39 63 57 28 64 27 72 -10z m-232
-87 c3 -16 19 -41 34 -55 15 -14 49 -45 74 -69 38 -35 47 -50 52 -89 7 -49 21
-82 104 -238 28 -53 63 -137 78 -190 14 -52 42 -127 62 -167 32 -66 35 -80 36
-167 2 -80 5 -99 24 -124 l21 -29 -35 -35 -35 -36 -36 24 c-31 21 -69 31 -97
24 -5 -1 -40 -2 -77 -1 -56 0 -74 5 -115 31 -26 17 -106 49 -178 71 -86 27
-164 60 -230 97 -55 31 -134 68 -176 82 -78 26 -121 55 -152 103 -10 16 -39
38 -63 48 -51 23 -53 15 32 144 111 170 262 331 427 457 89 68 229 157 238
152 4 -2 9 -17 12 -33z m1972 -52 c209 -142 373 -309 517 -524 l79 -120 -40
-13 c-22 -7 -52 -28 -66 -45 -55 -67 -97 -107 -114 -107 -40 0 -122 -33 -224
-90 -60 -33 -139 -70 -175 -81 -147 -45 -219 -72 -255 -95 -34 -22 -46 -24
-130 -22 -82 2 -96 0 -130 -21 l-39 -24 -26 26 -26 26 21 23 c26 29 41 84 33
123 -10 46 1 95 30 139 33 51 52 99 85 218 17 61 49 133 90 208 61 111 95 198
95 246 0 15 24 47 70 92 40 39 70 77 70 89 0 24 9 35 24 26 6 -3 56 -37 111
-74z m-1602 -107 c24 -26 43 -76 72 -193 21 -82 39 -125 85 -204 65 -110 87
-163 74 -174 -16 -13 -84 -32 -93 -26 -10 5 -29 65 -71 215 -13 44 -44 113
-76 167 -60 102 -86 165 -77 188 5 14 48 44 64 45 3 0 13 -8 22 -18z m1166
-13 c53 -19 43 -55 -71 -259 -21 -37 -50 -114 -68 -178 -31 -115 -55 -176 -68
-170 -4 2 -24 10 -44 18 -23 8 -38 21 -38 31 0 16 23 64 97 199 26 47 51 114
68 179 25 98 44 149 67 179 13 15 17 15 57 1z m2531 -165 c0 -85 -70 -130
-287 -188 -70 -19 -148 -43 -173 -54 -134 -58 -241 -82 -285 -66 -16 6 -45 54
-45 73 0 18 93 74 214 129 66 30 149 72 184 94 34 22 64 39 66 37 2 -2 9 -14
15 -26 20 -39 55 -39 112 -2 41 26 60 32 94 30 36 -1 47 2 62 23 16 23 19 23
31 9 6 -9 12 -36 12 -59z m-6240 25 c8 -2 30 1 48 5 25 6 40 3 66 -13 44 -27
72 -26 99 3 l22 24 65 -40 c36 -22 133 -72 217 -113 83 -40 168 -85 187 -100
35 -26 35 -28 21 -56 -35 -66 -91 -65 -283 5 -82 29 -164 57 -183 61 -52 11
-189 60 -236 83 -70 36 -100 97 -77 157 6 14 8 14 23 1 9 -8 23 -15 31 -17z
m6208 -279 c-166 -198 -755 -879 -760 -879 -5 -1 -8 15 -8 35 0 79 -46 333
-86 471 -5 18 1 25 33 41 48 25 78 57 98 105 12 28 21 37 40 37 31 0 646 198
685 221 31 18 31 8 -2 -31z m-5883 -93 c165 -52 314 -98 332 -102 21 -4 34
-14 39 -28 11 -37 44 -77 84 -102 l37 -24 -23 -85 c-37 -139 -56 -271 -63
-432 l-6 -151 -355 505 c-195 277 -357 509 -359 514 -2 6 0 8 5 6 5 -3 144
-48 309 -101z m5025 11 c0 -18 -45 -58 -64 -58 -14 0 -48 65 -39 74 4 3 21 6
39 6 18 0 36 5 40 11 8 14 24 -8 24 -33z m-4430 24 c0 -3 -10 -32 -22 -65 -22
-54 -25 -58 -53 -55 -37 4 -44 34 -20 88 15 34 21 38 56 38 21 1 39 -2 39 -6z
m498 -184 c20 -20 10 -78 -24 -136 -1 -2 -11 1 -21 7 -44 25 -44 25 -27 67 16
39 41 74 54 74 3 0 11 -5 18 -12z m3373 -23 c33 -58 33 -71 -2 -85 -36 -15
-41 -10 -61 52 -20 67 29 93 63 33z m-1931 -104 c0 -11 2 -26 5 -34 4 -10 -8
-19 -39 -31 -58 -22 -90 -18 -94 12 -3 18 6 27 50 47 64 30 78 31 78 6z m505
-1 l46 -20 -22 -29 c-23 -32 -31 -31 -99 4 -28 14 -39 43 -23 58 12 12 51 7
98 -13z m-1698 -32 c15 -6 73 -38 128 -69 77 -44 124 -64 205 -84 110 -27 210
-69 210 -88 0 -27 -25 -77 -40 -77 -30 1 -90 28 -190 85 -74 42 -129 65 -208
86 -125 33 -184 58 -178 73 3 6 10 28 17 49 13 41 16 42 56 25z m2882 -33 c9
-27 10 -39 1 -49 -15 -20 -98 -51 -214 -81 -71 -18 -121 -39 -182 -75 -81 -50
-173 -95 -178 -88 -2 1 -8 17 -13 33 -6 17 -14 38 -18 47 -9 23 28 41 167 78
80 22 138 45 199 80 178 102 217 111 238 55z m-1389 -101 c0 -26 -2 -26 -44
-21 -163 23 -371 -91 -449 -246 -23 -44 -32 -54 -48 -50 -10 3 -19 11 -19 17
0 28 74 135 129 186 101 95 208 138 349 139 l82 1 0 -26z m1779 -101 c45 -217
52 -477 18 -668 l-12 -70 -55 -27 c-30 -15 -106 -44 -167 -64 l-113 -37 -57
26 c-32 14 -101 37 -153 52 -60 16 -134 48 -200 84 -105 58 -206 101 -238 101
-20 1 -69 44 -95 83 -23 35 -60 59 -103 66 -19 3 -35 9 -34 14 0 4 0 25 0 47
0 36 2 40 26 40 37 0 63 16 125 80 47 47 64 58 100 63 26 3 105 37 189 80 92
47 185 86 254 106 121 36 178 61 218 99 26 24 31 25 105 19 63 -5 86 -2 118
12 29 13 42 15 47 6 4 -6 16 -56 27 -112z m-1391 -165 c41 -87 56 -161 50
-254 -4 -66 -35 -184 -52 -201 -2 -3 -14 -2 -26 2 -15 5 -19 12 -14 23 51 117
59 247 23 354 -25 74 -78 158 -126 197 -32 26 -34 31 -23 52 13 23 14 22 75
-43 37 -39 75 -92 93 -130z m-1053 103 c4 -15 -17 -92 -31 -110 -6 -7 -64 22
-64 32 0 6 9 30 21 54 16 32 26 43 44 43 14 0 26 -7 30 -19z m743 -21 c74 -39
125 -92 161 -169 22 -47 26 -70 26 -141 0 -78 -3 -90 -34 -148 -37 -68 -107
-138 -168 -168 -30 -15 -60 -19 -143 -19 -96 0 -110 3 -158 28 -68 36 -124 94
-159 165 -24 49 -28 69 -28 142 0 71 5 94 26 140 36 74 86 130 150 164 71 39
100 46 189 42 63 -2 86 -8 138 -36z m522 -61 c21 -56 22 -61 6 -77 -23 -23
-45 -7 -74 53 l-24 48 24 18 c12 10 28 19 34 19 6 0 22 -27 34 -61z m-1293
-479 c12 -25 22 -48 23 -52 0 -6 -61 -30 -65 -26 -14 17 -35 72 -35 91 0 56
47 48 77 -13z m1298 27 c4 -14 -3 -45 -17 -77 l-23 -53 -30 25 c-27 24 -28 27
-15 59 27 68 74 93 85 46z m284 -166 c32 -16 84 -46 116 -65 32 -19 96 -45
142 -57 46 -12 82 -23 80 -25 -11 -11 -140 -23 -156 -14 -10 5 -70 23 -132 40
-159 43 -175 57 -149 124 12 33 27 33 99 -3z m-1834 -17 c8 -20 15 -38 15 -40
0 -12 -109 -55 -193 -78 -98 -26 -159 -31 -207 -17 -23 7 -21 9 20 20 25 7 87
37 138 67 166 99 202 106 227 48z m426 -130 c-12 -15 -24 -44 -27 -66 l-7 -38
-46 5 c-25 3 -95 9 -156 15 -60 6 -130 13 -154 17 l-44 6 34 17 c19 10 47 30
62 44 23 21 38 26 86 27 32 1 64 -1 70 -5 17 -11 88 12 118 39 l28 24 29 -29
29 -28 -22 -28z m977 36 c13 -6 45 -11 70 -10 92 3 117 -1 152 -25 19 -13 55
-32 80 -43 l44 -19 -104 -12 c-58 -6 -144 -14 -191 -18 l-86 -6 -11 45 c-6 24
-21 57 -33 72 -20 26 -21 28 -3 47 17 19 18 19 38 0 12 -10 32 -24 44 -31z
m-419 1 c9 -15 7 -20 -12 -25 -41 -11 -65 -7 -70 13 -8 33 66 43 82 12z m-369
-117 c22 -9 37 -20 34 -25 -6 -10 -124 -12 -124 -2 0 10 32 43 41 43 5 0 27
-7 49 -16z m544 0 c12 -30 6 -34 -51 -34 l-58 1 45 24 c54 29 56 29 64 9z
m14337 -5859 c-14 -529 -14 -903 -1 -1330 33 -1085 132 -2108 305 -3148 25
-148 45 -274 44 -280 -1 -19 -35 131 -89 398 -294 1450 -391 2960 -285 4435
22 302 27 361 32 356 3 -2 0 -196 -6 -431z m-23568 -2771 c-10 -16 -26 -36
-35 -44 -16 -14 -148 -333 -218 -525 -18 -49 -128 -319 -245 -600 -117 -280
-246 -597 -286 -704 -58 -152 -79 -195 -96 -202 -34 -13 -47 -45 -33 -79 11
-26 5 -50 -49 -217 -179 -556 -254 -938 -287 -1457 l-6 -99 -31 32 c-28 27
-32 38 -35 100 -5 92 15 445 34 591 69 534 227 1084 484 1685 160 374 352 761
633 1277 137 252 164 296 175 284 12 -12 11 -18 -5 -42z m16233 -463 c-79
-585 -211 -1115 -392 -1574 -56 -144 -257 -567 -269 -567 -4 0 -4 15 0 33 18
86 169 591 303 1017 183 581 265 856 328 1108 27 105 50 188 52 183 2 -6 -8
-96 -22 -200z m-12721 -1251 c572 -36 1115 -119 1684 -255 223 -54 438 -115
876 -250 1452 -447 2271 -634 3290 -749 677 -77 1306 -112 2200 -123 360 -4
552 -10 538 -16 -15 -6 -26 -28 -38 -75 -32 -118 -86 -264 -140 -379 -50 -105
-56 -113 -82 -113 -15 0 -78 -13 -139 -29 -315 -83 -582 -224 -850 -448 -186
-157 -290 -273 -345 -387 -39 -81 -46 -136 -25 -191 34 -87 127 -146 341 -214
210 -68 343 -91 547 -98 l177 -6 22 -66 c12 -36 42 -115 66 -174 49 -116 68
-136 116 -118 28 11 117 145 203 305 l59 108 150 38 c181 45 429 127 461 153
13 10 24 25 24 33 0 10 18 2 58 -24 191 -130 434 -203 626 -189 68 6 84 10 99
29 25 30 19 61 -54 282 -32 100 -55 182 -51 184 23 7 199 112 302 179 303 199
570 428 809 698 143 160 231 276 231 302 0 26 10 29 123 37 100 7 275 43 305
62 39 25 30 67 -30 130 l-52 55 45 -6 c244 -33 499 -106 694 -199 65 -31 122
-56 127 -56 5 0 20 11 34 25 l26 26 104 -68 105 -68 -70 -66 c-80 -74 -87 -96
-43 -137 42 -39 271 -174 398 -233 60 -29 174 -78 254 -110 135 -54 261 -97
960 -323 725 -235 1063 -434 1432 -843 149 -166 414 -492 1071 -1323 298 -376
620 -779 716 -895 399 -483 476 -578 596 -730 464 -591 712 -1036 795 -1427
19 -90 48 -365 39 -370 -2 -2 -46 -2 -96 0 l-93 3 0 29 c0 39 -100 325 -172
495 -82 192 -173 369 -286 554 -52 86 -102 170 -111 186 -10 17 -27 35 -38 40
-11 6 -27 18 -37 28 -27 26 -61 31 -99 12 -41 -19 -182 -143 -277 -244 -36
-38 -138 -145 -227 -239 -90 -94 -163 -178 -163 -187 0 -23 45 -65 71 -65 26
0 116 86 392 375 211 221 247 247 247 183 0 -31 -47 -1040 -53 -1122 l-2 -38
-55 68 c-99 124 -272 294 -435 428 -202 166 -320 278 -404 386 -194 250 -335
368 -771 646 -154 98 -208 138 -226 166 -32 50 -70 52 -108 7 -14 -17 -26 -37
-26 -45 0 -11 -4 -12 -19 -4 -33 17 -69 12 -85 -13 -13 -20 -12 -115 10 -841
14 -450 23 -821 20 -823 -2 -3 -64 -17 -138 -33 -258 -55 -603 -150 -815 -224
-37 -13 -129 -43 -203 -66 -145 -45 -228 -83 -280 -126 -56 -48 -77 -129 -43
-166 9 -10 17 -38 18 -63 2 -40 10 -53 87 -142 172 -199 285 -368 396 -593 42
-85 83 -163 91 -172 16 -20 52 -23 82 -8 30 17 23 56 -35 180 -93 202 -215
397 -355 573 -39 48 -71 89 -71 91 0 2 51 -14 113 -36 185 -65 408 -125 604
-163 256 -50 349 -87 422 -170 33 -38 58 -82 50 -89 -13 -13 -235 -153 -354
-224 -396 -236 -625 -311 -1141 -372 -188 -22 -286 -47 -439 -110 -363 -151
-390 -159 -653 -196 -97 -13 -211 -33 -253 -45 l-77 -21 -668 146 c-368 80
-851 184 -1073 231 -1577 334 -2243 526 -2951 849 -133 61 -135 63 -132 93 2
24 -7 42 -47 89 -28 33 -51 61 -51 64 0 9 534 84 581 82 28 -2 50 2 56 10 6 7
13 78 17 158 7 163 26 294 63 419 31 108 103 282 113 276 5 -3 113 -150 241
-328 127 -177 241 -333 253 -345 17 -19 28 -23 59 -19 33 5 37 3 37 -17 0 -30
22 -49 95 -83 83 -38 207 -42 407 -14 174 25 225 25 418 3 l145 -17 0 -44 0
-43 -280 -142 -280 -141 3 -60 c3 -52 13 -79 78 -202 41 -78 102 -191 137
-250 58 -100 65 -108 96 -111 38 -4 71 20 71 51 0 11 -29 70 -64 131 -35 62
-94 169 -131 238 l-66 127 283 143 c259 131 283 145 286 170 2 15 -1 35 -6 44
-6 11 -4 30 6 55 38 97 -55 166 -259 190 -130 15 -302 7 -474 -21 -172 -29
-252 -24 -340 19 -36 18 -73 31 -83 29 -10 -2 -24 8 -35 26 -47 75 -483 674
-508 699 -36 33 -63 34 -93 4 -18 -18 -28 -22 -41 -15 -37 21 -61 1 -100 -84
-85 -187 -141 -413 -152 -616 -6 -104 -8 -113 -27 -117 -12 -2 -160 -25 -331
-50 -330 -48 -335 -50 -335 -105 0 -14 15 -52 34 -83 19 -31 32 -57 29 -57
-13 0 -388 198 -583 308 -381 214 -802 473 -1410 867 -151 98 -383 248 -514
332 -132 85 -248 165 -258 179 -11 13 -28 24 -38 24 -10 0 -112 58 -226 129
-499 307 -828 491 -1245 695 -452 222 -734 334 -1554 621 -554 194 -959 346
-1235 463 -212 90 -925 441 -1307 642 l-173 91 -1 37 c0 20 -4 98 -8 172 -9
151 -21 188 -74 220 -44 27 -91 25 -202 -11 -128 -41 -230 -59 -330 -59 l-82
0 -254 124 c-587 287 -1120 498 -1604 635 -93 27 -193 54 -222 61 -47 11 -54
16 -73 55 -39 80 -50 166 -50 396 0 391 47 535 235 724 202 202 471 299 885
320 146 7 808 -18 945 -36 44 -6 141 -30 215 -54 199 -64 256 -77 350 -78 62
0 103 6 151 22 84 28 169 79 188 112 19 33 7 76 -24 91 -20 9 -31 6 -72 -20
-113 -73 -211 -95 -325 -72 -35 6 -131 34 -214 61 -84 26 -183 53 -220 59
-166 27 -952 48 -1129 31 -358 -35 -626 -144 -824 -335 -233 -225 -311 -475
-282 -907 7 -103 18 -215 26 -250 7 -35 12 -65 10 -67 -1 -1 -76 11 -166 27
-90 16 -210 35 -266 42 l-103 12 -10 36 c-36 129 -45 220 -45 461 0 211 4 261
23 361 81 426 252 768 517 1034 178 179 339 275 615 365 285 94 532 133 840
134 244 0 306 -8 600 -79 102 -24 228 -51 280 -60 135 -21 315 -20 435 5 53
11 115 20 138 20 l40 0 -6 -91 c-11 -164 30 -487 69 -546 27 -43 105 -22 107
28 0 13 -10 69 -22 124 -16 74 -24 148 -28 283 -5 168 -4 184 13 203 11 12 18
34 17 57 -1 21 7 51 19 69 17 29 18 36 6 60 -7 15 -25 32 -40 37 -23 8 -32 6
-54 -15 -14 -13 -32 -36 -40 -51 -12 -24 -21 -28 -57 -28 -23 0 -93 -9 -156
-20 -127 -22 -333 -27 -441 -9 -36 5 -159 32 -275 59 -321 75 -379 83 -595 77
-248 -7 -638 -69 -889 -142 -450 -129 -784 -421 -1015 -885 -137 -277 -213
-563 -232 -880 l-7 -115 -14 80 c-8 44 -30 125 -51 180 l-37 100 1 230 c1 307
30 544 110 903 58 260 223 799 247 807 28 10 901 171 1222 225 806 136 1363
203 2040 243 133 8 869 6 1010 -3z m-4152 -311 c-13 -10 -73 -19 -73 -10 0 4
5 23 11 40 l11 32 29 -27 c16 -15 26 -31 22 -35z m19287 -259 c389 -20 879
-75 1070 -120 246 -58 463 -84 795 -95 99 -4 279 -15 400 -26 721 -62 1240
-83 1895 -76 621 7 915 24 945 53 13 13 20 12 57 -7 78 -40 192 -122 244 -176
28 -29 58 -53 66 -53 9 0 27 10 42 21 15 12 28 20 30 18 2 -2 11 -44 20 -94
132 -690 424 -1715 709 -2485 145 -392 187 -491 218 -509 32 -18 34 -27 68
-226 92 -547 85 -1182 -19 -1790 -27 -154 -66 -350 -74 -364 -18 -35 -612
-1009 -620 -1018 -9 -10 -27 27 -80 160 -182 457 -421 927 -690 1357 -101 161
-125 190 -158 190 -27 0 -71 -47 -63 -68 3 -9 50 -86 104 -172 271 -428 512
-902 702 -1378 61 -153 76 -183 96 -188 13 -4 23 -8 23 -11 0 -8 -174 -290
-234 -378 -33 -49 -101 -131 -151 -181 -76 -76 -105 -98 -185 -138 -65 -32
-125 -53 -190 -66 -150 -30 -473 -51 -894 -57 l-389 -6 7 49 c42 304 29 571
-41 814 -79 278 -201 526 -411 835 -118 175 -231 322 -491 640 -190 232 -1551
1937 -1936 2425 -221 280 -325 401 -460 535 -201 200 -400 342 -668 475 -250
125 -427 190 -1002 371 -397 126 -636 212 -836 303 -138 63 -370 192 -368 204
0 4 19 22 40 41 l40 34 45 -23 c46 -22 46 -22 73 -3 37 28 41 76 7 98 -21 14
-23 20 -14 40 9 19 7 30 -6 51 l-18 26 29 -6 c15 -3 93 -17 173 -31 1350 -238
2265 -510 3045 -905 322 -163 582 -320 830 -504 119 -88 165 -87 165 3 0 26
-13 39 -108 109 -430 318 -971 603 -1559 823 -544 202 -1197 376 -1988 528
-266 51 -853 155 -944 167 -28 4 -51 10 -51 13 0 4 17 15 38 25 20 10 156 82
302 161 419 225 621 321 862 408 415 150 907 208 1508 177z m4471 -80 c57 -6
145 -17 194 -26 92 -15 249 -54 243 -60 -8 -8 -363 -25 -721 -34 -374 -10
-1018 -1 -1232 17 l-80 7 170 17 c94 9 285 29 425 43 140 15 307 31 370 35
170 12 513 12 631 1z m-7544 -606 c122 -93 126 -98 53 -69 -82 32 -239 78
-350 102 l-85 18 125 5 c69 3 135 7 147 8 13 1 55 -23 110 -64z m-826 -57 c81
-28 184 -88 166 -98 -33 -19 -221 -32 -378 -26 -182 6 -189 4 -189 -48 0 -51
29 -69 116 -73 42 -3 74 -9 74 -15 0 -31 -291 -357 -450 -503 -234 -215 -563
-453 -780 -564 l-41 -21 -35 78 c-20 43 -43 86 -51 96 -36 39 -110 1 -100 -51
3 -15 30 -82 60 -149 50 -108 143 -361 161 -437 l7 -28 -83 7 c-237 21 -441
129 -727 386 -81 74 -107 83 -141 49 -43 -43 -19 -79 153 -225 l59 -49 -107
-38 c-312 -112 -764 -202 -844 -168 -25 10 -35 9 -62 -4 -20 -10 -58 -16 -98
-16 l-66 0 120 114 c76 73 128 115 142 115 26 1 52 25 65 61 5 15 51 65 102
113 73 67 98 85 115 80 32 -8 66 20 80 68 7 24 27 59 43 78 22 24 28 39 23 55
-4 11 -10 41 -14 65 -8 44 -23 61 -54 61 -20 0 -485 -163 -676 -236 -134 -52
-170 -72 -339 -182 -68 -45 -158 -95 -200 -112 -87 -36 -106 -53 -98 -92 5
-26 4 -27 -14 -16 -56 35 -67 148 -22 219 39 59 228 256 317 329 281 230 701
410 954 410 133 0 302 45 451 120 94 47 118 76 98 116 -26 53 -37 53 -165 -9
-102 -49 -286 -107 -299 -95 -2 3 18 56 45 119 27 63 57 140 67 172 15 48 24
61 50 72 17 7 34 18 38 23 4 7 16 5 36 -4 24 -12 72 -14 255 -12 211 3 228 4
241 22 21 30 17 72 -8 90 -19 13 -60 16 -253 16 -126 0 -237 -4 -245 -10 -10
-6 -23 1 -48 31 -18 21 -41 40 -50 40 -9 1 1 5 23 10 22 4 117 8 210 9 231 1
1241 40 1418 55 38 4 67 2 67 -3 0 -18 -179 -190 -266 -255 -101 -76 -300
-180 -387 -202 -97 -24 -255 -37 -407 -33 l-144 3 -10 -28 c-14 -38 9 -80 49
-88 17 -4 101 -7 187 -8 92 -1 167 -6 182 -12 20 -10 49 -3 183 41 280 93 343
122 343 159 0 9 14 25 31 35 93 55 281 234 370 351 l41 54 96 4 c54 1 198 4
322 5 209 1 230 0 291 -21z m1519 -215 c16 -6 16 -8 -4 -23 -20 -15 -24 -14
-66 13 l-45 29 49 -6 c27 -4 57 -10 66 -13z m-4624 -1149 c-2 -10 -8 -42 -11
-70 -4 -29 -10 -53 -14 -53 -10 0 -106 99 -100 103 8 8 94 35 112 36 13 1 17
-4 13 -16z m-276 -120 c0 -20 -5 -65 -11 -99 l-11 -64 -69 63 c-38 34 -69 65
-69 68 0 7 129 67 148 68 7 1 12 -13 12 -36z m145 -131 c-15 -13 -29 -21 -32
-18 -3 2 -2 23 2 46 l7 42 25 -24 24 -23 -26 -23z m-475 -57 c-11 -34 -43 -65
-66 -65 -7 0 -22 8 -34 18 l-22 18 63 42 c35 23 65 37 67 32 2 -5 -2 -26 -8
-45z m254 -148 c-15 -17 -23 -38 -21 -49 6 -21 2 -22 -98 -7 l-76 12 19 21
c28 31 38 54 52 119 l12 58 69 -62 69 -61 -26 -31z m-484 53 c0 -13 -11 -13
-30 0 -12 8 -11 10 8 10 12 0 22 -4 22 -10z m-14130 -35 c176 -23 351 -60 570
-120 109 -30 202 -55 206 -55 4 0 5 -2 2 -5 -2 -3 -65 9 -138 25 -662 150
-1301 162 -1794 35 -348 -89 -702 -258 -921 -439 l-30 -25 55 21 c42 16 83 22
170 24 63 2 106 1 95 -2 -81 -21 -268 -83 -357 -119 -181 -74 -338 -158 -548
-292 l-115 -74 95 93 c247 241 531 446 834 603 380 197 779 308 1256 349 98 9
511 -4 620 -19z m15170 -201 c0 -18 -104 -184 -110 -177 -9 9 -60 149 -60 163
0 8 31 12 138 18 17 1 32 -1 32 -4z m-12736 -96 c19 -13 53 -9 77 10 23 18 28
18 149 1 182 -27 439 -78 471 -95 16 -8 43 -14 62 -14 47 0 324 -78 569 -160
471 -158 971 -377 1623 -709 404 -207 526 -272 530 -285 42 -121 83 -186 118
-186 29 0 60 36 60 68 0 18 2 32 3 32 1 0 85 -43 186 -96 870 -458 1401 -684
2583 -1099 545 -191 751 -272 1101 -431 167 -75 595 -287 671 -331 l42 -24
-50 -69 c-60 -83 -166 -183 -242 -228 -31 -19 -93 -50 -139 -69 -46 -20 -86
-41 -90 -47 -24 -35 6 -96 47 -96 62 0 238 91 350 181 77 62 201 207 211 247
4 12 10 22 15 22 14 0 87 -38 93 -49 11 -17 -92 -157 -167 -228 -83 -78 -173
-136 -287 -183 -79 -33 -257 -80 -301 -80 -62 0 -103 -75 -63 -114 20 -20 23
-20 142 3 315 61 568 209 713 415 l49 69 0 -92 c0 -112 -20 -216 -66 -339 -19
-51 -33 -96 -30 -101 6 -8 -29 -22 -66 -26 -31 -3 -126 -74 -201 -148 -161
-162 -258 -364 -304 -637 -21 -124 -22 -381 -3 -530 8 -63 15 -119 15 -123 0
-5 -50 -30 -112 -56 -215 -92 -330 -179 -381 -288 -22 -47 -27 -73 -27 -134
l0 -77 -45 -10 c-25 -6 -211 -52 -415 -101 -2627 -637 -5271 -992 -8040 -1081
-414 -13 -378 -15 -372 13 6 21 6 21 -13 -3 l-19 -25 -768 1 c-911 1 -1411 15
-2275 65 -404 24 -398 24 -398 -36 0 -61 15 -66 252 -81 278 -17 810 -44 918
-45 l85 -2 -65 -7 c-36 -4 -204 -13 -375 -20 -338 -13 -340 -13 -653 41 -515
88 -1000 209 -1522 380 -168 55 -251 88 -264 102 -30 35 -130 251 -175 381
-172 495 -417 1366 -546 1946 l-37 165 11 215 c11 204 44 611 57 692 4 27 59
114 196 310 210 301 209 300 201 269 -4 -18 -1 -21 23 -21 50 -1 197 -37 291
-72 243 -92 412 -239 511 -446 71 -151 82 -222 92 -612 8 -359 16 -427 70
-621 104 -377 329 -654 614 -758 122 -44 199 -54 345 -48 150 6 246 29 378 92
114 54 169 91 258 174 74 70 67 57 -27 -48 -32 -35 -58 -72 -58 -83 0 -24 43
-68 67 -68 21 0 122 102 182 184 142 192 240 430 278 674 13 85 19 102 32 98
9 -3 77 -14 151 -25 460 -68 969 -74 1418 -15 264 34 645 118 856 189 461 154
706 364 787 672 26 99 28 297 5 428 -53 297 -211 648 -446 990 -34 49 -62 93
-63 98 -1 5 25 18 58 31 86 31 169 92 260 188 160 170 276 422 321 698 19 116
14 357 -11 470 -40 183 -110 353 -211 507 -63 98 -89 118 -130 103 -60 -23
-58 -46 12 -150 141 -211 216 -428 230 -665 22 -366 -163 -808 -408 -975 -69
-46 -158 -86 -158 -70 0 4 69 71 154 148 84 77 175 169 201 204 89 118 139
251 154 418 24 257 -43 507 -252 941 -77 159 -126 219 -212 261 -35 18 -48 27
-30 23 92 -21 233 -45 324 -56 148 -17 440 -6 552 20 99 23 240 68 254 82 6 6
13 3 19 -8 5 -10 14 -21 20 -25z m-3777 -361 c83 -28 192 -108 330 -240 142
-137 192 -176 278 -220 67 -33 201 -74 305 -91 46 -8 86 -20 88 -26 2 -6 50
-34 105 -62 304 -152 664 -397 848 -578 31 -30 100 -98 154 -150 483 -470 863
-1147 917 -1635 35 -313 -121 -568 -450 -738 -286 -148 -736 -261 -1267 -319
-186 -20 -800 -17 -990 5 -152 18 -396 55 -402 61 -2 2 -8 52 -13 112 -31 356
-155 629 -407 894 l-92 97 25 24 c48 45 113 155 140 234 16 51 31 126 39 205
7 69 20 148 31 176 17 49 17 53 1 78 -23 35 -59 34 -152 -5 -156 -65 -305
-189 -396 -331 -32 -51 -54 -76 -62 -72 -23 14 -193 148 -254 202 -61 53 -62
55 -43 71 13 11 23 38 30 85 24 153 107 291 231 381 54 40 64 60 49 99 -22 58
-69 50 -155 -24 -132 -114 -205 -244 -250 -445 l-7 -30 -70 75 c-144 155 -258
356 -303 534 -50 195 -53 441 -10 687 19 106 19 137 -1 174 -15 30 -15 30 23
63 47 42 442 307 583 392 278 168 608 297 842 330 85 12 254 5 305 -13z m1622
-212 c168 -40 351 -184 424 -335 49 -101 67 -177 67 -286 0 -92 -24 -215 -53
-270 l-14 -27 -39 36 -39 36 18 28 c162 253 86 579 -162 697 -60 28 -75 31
-166 31 -87 0 -107 -3 -155 -26 -73 -34 -130 -84 -130 -114 0 -24 42 -65 67
-65 7 0 36 16 64 35 94 64 185 70 280 18 62 -33 104 -80 138 -153 45 -98 27
-273 -37 -349 -17 -20 -18 -20 -97 40 -122 94 -346 239 -480 312 -162 88 -157
84 -162 143 -6 54 19 127 55 167 27 31 85 64 138 81 64 19 202 20 283 1z
m5578 -283 c22 -14 33 -63 33 -148 l0 -85 -160 83 c-88 46 -160 86 -160 91 0
4 10 7 23 7 12 1 60 14 107 29 87 30 136 37 157 23z m-7712 -1904 c-4 -46 -11
-101 -17 -123 -9 -34 -12 -37 -18 -20 -4 11 -19 31 -33 44 -24 21 -32 23 -87
17 -35 -4 -60 -3 -60 2 0 22 184 162 213 162 5 0 6 -32 2 -82z m-280 -288 c45
-46 91 -64 138 -55 l32 7 -29 -31 c-17 -17 -34 -31 -39 -31 -6 0 -42 26 -80
58 -39 31 -75 60 -80 63 -10 7 -1 29 12 29 4 0 24 -18 46 -40z m24907 -215
c468 -997 943 -2138 1337 -3209 51 -137 90 -250 88 -253 -3 -2 -24 13 -48 33
-229 193 -541 392 -1097 699 -178 99 -321 184 -318 190 2 6 -13 585 -35 1286
-21 701 -39 1309 -39 1353 0 77 0 78 21 65 11 -8 52 -82 91 -164z m258 -68
c312 -208 512 -385 692 -612 74 -94 177 -190 333 -310 154 -119 367 -323 471
-451 79 -97 98 -110 141 -99 l25 6 -7 -78 c-15 -173 -54 -354 -170 -788 -64
-239 -118 -516 -150 -755 -14 -113 -29 -223 -33 -245 l-7 -40 -29 80 c-323
910 -928 2381 -1344 3268 -28 59 -46 104 -39 100 7 -3 59 -38 117 -76z
m-11700 -361 c253 -153 235 -138 217 -173 -31 -60 -58 -161 -64 -240 l-6 -82
-42 6 c-30 4 -69 -2 -135 -22 -127 -37 -158 -33 -253 37 l-75 55 19 42 c55
123 99 327 99 460 0 63 0 63 23 49 12 -8 110 -67 217 -132z m-16352 -61 c-10
-110 -14 -133 -20 -105 -14 61 5 271 23 253 5 -5 4 -67 -3 -148z m29947 -30
c135 -238 248 -489 339 -753 31 -90 56 -166 56 -168 0 -2 -112 -4 -250 -4
-246 0 -250 0 -250 21 0 11 -4 28 -9 37 -5 10 1 213 15 487 13 259 23 477 24
485 0 22 14 3 75 -105z m-13185 -275 c53 -163 114 -299 190 -425 89 -147 115
-166 170 -128 13 9 25 13 27 7 13 -38 41 -80 56 -82 33 -6 67 8 79 33 9 20 5
37 -25 108 -51 119 -104 327 -82 327 4 0 84 -50 178 -112 388 -252 693 -448
882 -566 110 -68 201 -125 202 -126 1 -1 -29 -3 -67 -4 -85 -2 -205 -39 -883
-271 -628 -215 -802 -270 -1512 -480 l-100 -29 -20 66 c-15 54 -30 78 -72 121
l-52 54 25 66 c84 224 216 377 514 600 85 63 181 142 213 176 104 107 157 256
137 381 -6 37 -6 63 1 76 6 10 7 38 4 62 -14 89 39 301 72 294 10 -2 32 -53
63 -148z m208 -20 l71 -45 1 -46 c0 -53 24 -189 46 -264 8 -27 10 -45 5 -40
-37 40 -177 328 -206 424 -9 28 -8 28 83 -29z m-1043 -140 c14 0 158 -105 163
-119 6 -18 -60 -61 -94 -61 -61 0 -94 -59 -60 -106 31 -41 169 -10 226 51 16
18 24 37 23 60 -1 30 2 35 22 35 13 0 60 14 105 30 45 17 98 30 119 30 25 0
44 7 56 20 20 22 43 16 24 -6 -7 -9 -12 -53 -13 -112 -1 -78 -6 -105 -23 -137
-53 -101 -136 -176 -361 -327 -259 -174 -382 -335 -489 -641 -19 -55 -33 -111
-31 -125 3 -26 8 -30 70 -58 47 -20 78 -69 78 -120 l0 -39 -87 -24 c-49 -13
-94 -26 -100 -29 -9 -3 -13 11 -13 49 0 59 -5 70 -34 86 -27 15 -75 -3 -81
-30 -3 -12 -6 -49 -7 -82 l-3 -59 -80 -23 c-109 -30 -110 -30 -83 17 21 37 22
42 8 67 -30 54 -82 43 -129 -27 -32 -47 -34 -54 -23 -82 6 -18 11 -32 9 -33
-5 -4 -177 -45 -188 -45 -16 0 -2 85 21 131 24 46 101 115 171 154 30 16 115
54 189 85 l135 55 3 43 c2 24 -4 97 -12 164 -18 139 -21 397 -5 501 27 184 92
354 183 482 82 114 244 245 284 230 8 -3 20 -5 27 -5z m16889 -622 c-78 -157
-232 -445 -322 -603 -109 -194 -272 -465 -278 -465 -3 0 3 15 14 33 23 38 373
669 521 940 57 103 105 187 107 187 2 0 -17 -42 -42 -92z m-2194 -100 l-12
-98 -32 0 c-32 0 -32 0 -59 -94 -15 -52 -88 -269 -163 -482 -75 -214 -174
-499 -221 -634 l-84 -246 -50 -28 c-80 -45 -186 -134 -374 -316 -247 -238
-399 -335 -582 -370 -102 -20 -321 -7 -498 29 -468 97 -643 102 -1300 36 -420
-42 -525 -48 -760 -49 l-230 -1 -470 78 c-553 91 -902 157 -883 167 7 4 40 11
73 14 222 26 326 54 525 143 251 113 293 124 570 148 292 25 457 62 685 152
201 79 584 293 840 470 54 37 71 54 73 76 2 15 5 27 7 27 7 0 590 -323 735
-408 201 -117 494 -313 624 -419 201 -162 191 -157 235 -127 18 13 22 24 19
49 -3 28 0 34 24 43 l28 10 0 -69 c0 -64 2 -70 24 -80 30 -14 72 -5 85 19 5 9
19 113 31 231 39 388 84 629 210 1111 89 343 114 460 133 616 l12 109 395 5
c236 3 397 1 399 -4 2 -5 -2 -54 -9 -108z m-3016 70 c3 -13 10 -225 16 -473 7
-247 14 -453 16 -457 3 -4 -1 -10 -7 -14 -7 -4 -16 1 -22 12 -26 46 -103 115
-165 147 -78 41 -120 53 -342 102 -211 46 -387 94 -574 157 -134 44 -296 105
-304 113 -8 8 49 49 105 75 167 79 809 267 1193 348 70 15 79 14 84 -10z
m-9101 -268 c13 0 17 -4 12 -9 -19 -17 -1469 -453 -1502 -450 -4 0 210 73 477
163 267 90 557 189 645 220 212 76 252 87 304 81 24 -3 53 -5 64 -5z m103 -43
c16 -14 24 -29 20 -36 -9 -14 -20 -8 -46 29 -26 36 -12 39 26 7z m282 -106
c464 -266 985 -516 1417 -679 561 -211 1235 -392 2312 -619 73 -15 130 -29
129 -31 -5 -4 -1152 181 -1451 234 -1054 187 -1677 401 -2222 766 -112 74
-279 206 -331 261 l-33 34 25 38 c14 21 26 44 26 51 0 8 2 14 4 14 2 0 58 -31
124 -69z m-1903 -321 c-11 -5 -27 -9 -35 -9 -9 0 -8 4 5 9 11 5 27 9 35 9 9 0
8 -4 -5 -9z m12990 -1117 c-31 -101 -12 -223 45 -294 31 -38 31 -38 8 -43 -18
-4 -473 -55 -498 -56 -3 0 65 71 150 158 151 155 287 282 302 282 4 0 1 -21
-7 -47z m-28530 -518 c219 -63 449 -123 638 -165 54 -12 97 -24 94 -26 -7 -7
-321 16 -437 32 -222 31 -425 96 -575 183 -71 41 -144 93 -145 103 0 4 46 -9
103 -28 56 -19 201 -64 322 -99z m7848 28 c-7 -2 -21 -2 -30 0 -10 3 -4 5 12
5 17 0 24 -2 18 -5z m-68 -8 c-5 -2 -208 -29 -450 -59 -1235 -155 -2457 -271
-2589 -245 -79 15 -120 39 -127 75 l-6 32 186 6 c1080 38 1930 92 2696 171
207 21 313 28 290 20z"/>
<path d="M34911 36997 c-12 -39 -43 -117 -68 -172 -70 -151 -61 -217 37 -295
38 -30 42 -31 108 -24 l69 6 -18 77 c-9 42 -36 166 -59 276 -22 109 -42 200
-43 202 -2 1 -13 -30 -26 -70z"/>
<path d="M35381 36228 c10 -46 26 -118 35 -160 l17 -77 27 16 c17 10 43 49 73
109 l47 94 -100 50 c-55 27 -104 50 -109 50 -5 0 0 -37 10 -82z"/>
<path d="M35090 35660 c32 -25 40 -25 40 0 0 16 -7 20 -32 20 l-33 0 25 -20z"/>
<path d="M32038 31986 c-163 -43 -213 -247 -88 -360 137 -123 350 -27 350 159
0 139 -127 236 -262 201z m113 -145 c37 -37 38 -78 4 -115 -24 -26 -71 -35
-110 -20 -19 8 -45 55 -45 84 0 33 53 80 90 80 22 0 41 -9 61 -29z"/>
<path d="M28475 20115 c-22 -8 -50 -12 -62 -9 -13 4 -34 -1 -48 -10 -50 -33
-189 -261 -355 -581 -51 -99 -163 -306 -248 -460 -85 -154 -198 -362 -249
-462 -109 -211 -108 -200 -24 -320 128 -182 343 -337 515 -373 46 -9 72 -9
120 0 59 12 61 11 83 -14 12 -14 48 -69 79 -121 32 -54 63 -96 73 -96 48 -4
81 21 81 60 0 15 -29 72 -65 130 -45 72 -62 108 -55 115 17 17 11 62 -11 82
-12 10 -35 19 -53 19 -26 0 -46 16 -135 107 -92 96 -102 109 -90 124 56 68
818 788 1214 1147 242 220 260 234 273 216 10 -15 25 -19 69 -19 43 0 68 -7
113 -31 58 -31 188 -131 312 -240 73 -65 455 -361 488 -379 48 -26 111 34 83
79 -6 9 -152 126 -325 261 -174 135 -353 276 -399 314 -109 89 -175 120 -255
121 -36 0 -67 -5 -77 -13 -11 -9 -17 -10 -22 -2 -4 6 -18 15 -32 21 -32 12
-51 1 -144 -83 -42 -37 -78 -68 -81 -68 -3 0 -11 13 -18 29 -22 53 -142 155
-323 274 -191 126 -272 170 -327 182 -19 3 -42 8 -50 10 -8 2 -33 -2 -55 -10z
m145 -148 c109 -57 427 -275 468 -322 23 -26 42 -52 42 -58 0 -6 7 -18 15 -26
13 -15 -1 -30 -127 -146 -78 -72 -152 -138 -164 -148 l-23 -17 6 89 c7 105 1
135 -32 157 -23 15 -30 14 -122 -16 -128 -43 -218 -78 -356 -141 -239 -109
-324 -194 -256 -255 18 -16 20 -26 14 -74 -3 -30 -10 -129 -14 -220 -7 -129
-6 -174 5 -205 l13 -40 -124 -126 c-83 -83 -125 -133 -125 -147 0 -28 34 -62
62 -62 22 0 188 -160 188 -182 0 -22 -104 2 -187 43 -98 49 -198 130 -270 219
-88 109 -87 93 -11 243 37 73 128 242 203 377 75 135 193 353 262 485 157 301
199 375 281 501 l66 101 67 -1 c51 -2 79 -8 119 -29z"/>
<path d="M24945 19597 c-47 -22 -95 -82 -95 -120 0 -38 7 -50 38 -66 29 -15
59 -6 67 20 8 24 61 59 90 59 43 0 99 -23 133 -55 32 -29 37 -39 36 -75 -1
-31 -8 -49 -28 -69 -47 -47 -152 -29 -213 37 -44 47 -123 28 -123 -30 0 -10
18 -39 41 -63 112 -122 289 -131 387 -19 84 95 82 207 -6 297 -60 62 -124 90
-217 94 -53 2 -90 -1 -110 -10z"/>
<path d="M23324 19559 c-44 -13 -104 -81 -104 -118 0 -68 72 -84 116 -26 32
42 56 44 123 10 50 -25 101 -76 101 -100 0 -33 -67 -65 -138 -65 -26 0 -34 5
-43 27 -12 33 -26 43 -60 43 -55 0 -76 -66 -40 -126 26 -43 76 -64 153 -64
169 0 278 101 246 227 -18 74 -103 155 -192 182 -72 22 -112 25 -162 10z"/>
<path d="M32172 19161 c-59 -28 -81 -79 -82 -187 0 -105 7 -138 36 -170 l24
-26 -30 -61 c-56 -114 -50 -214 17 -288 84 -92 195 -110 315 -51 74 36 158
113 208 191 l33 51 25 -22 c68 -64 79 -165 37 -340 -39 -162 -32 -251 27 -322
21 -26 37 -36 58 -36 59 0 77 55 39 117 -19 31 -21 44 -16 131 3 59 14 122 27
162 15 43 22 92 23 145 1 83 -10 116 -74 212 -20 31 -20 33 -2 39 95 32 194
109 227 178 20 42 21 108 2 145 -82 158 -364 173 -469 25 l-31 -44 -56 54
c-101 100 -244 141 -338 97z"/>
<path d="M30726 18999 c-9 -13 -16 -30 -16 -39 0 -28 30 -60 57 -60 71 0 144
-75 254 -260 34 -58 87 -143 119 -190 126 -188 600 -941 600 -954 0 -4 -374
-247 -385 -249 -3 -1 -43 79 -89 178 -45 99 -104 223 -131 275 -46 86 -53 95
-81 98 -38 4 -64 -19 -64 -56 0 -15 32 -92 71 -172 250 -513 379 -903 418
-1262 16 -144 15 -202 -4 -194 -9 3 -76 -14 -150 -39 -237 -79 -510 -124 -890
-145 -180 -10 -1211 -50 -1286 -50 l-36 0 -81 163 c-126 254 -218 486 -282
717 -18 63 -39 120 -48 127 -13 11 -11 14 14 23 16 6 79 33 139 60 589 259
1210 473 1868 640 231 59 257 70 257 110 0 32 -30 60 -63 60 -18 0 -109 -20
-204 -44 l-172 -43 56 51 c105 95 170 232 160 334 -18 175 -255 265 -453 173
-158 -74 -228 -227 -174 -381 10 -30 16 -58 12 -61 -4 -3 -29 -14 -57 -24 -27
-9 -74 -31 -102 -47 l-53 -29 0 64 c0 114 -51 216 -123 247 -58 25 -192 35
-246 19 -106 -32 -179 -148 -166 -264 12 -109 53 -175 137 -220 29 -15 67 -35
83 -44 17 -8 58 -17 92 -19 37 -3 67 -10 74 -18 8 -10 8 -14 0 -14 -18 0 -394
-138 -611 -225 -327 -130 -521 -218 -537 -241 -17 -27 -1 -70 31 -80 18 -6 16
-8 -13 -18 -50 -16 -58 -35 -42 -98 55 -218 188 -563 311 -810 93 -187 110
-212 142 -213 12 -1 32 -6 43 -12 21 -10 371 0 1105 32 506 22 739 49 992 114
129 34 279 86 288 101 5 8 15 8 34 0 43 -16 79 6 87 53 9 54 -6 273 -26 392
-26 150 -81 362 -137 523 -28 79 -48 145 -47 146 2 2 96 63 209 136 113 72
211 139 218 148 6 9 12 28 12 43 0 15 5 31 10 34 35 22 -21 121 -435 770 -105
165 -209 332 -230 370 -62 113 -142 233 -192 286 -64 69 -120 100 -192 106
-53 5 -60 3 -75 -18z m-172 -853 c43 -18 76 -61 76 -98 l0 -30 -45 50 c-47 53
-73 67 -145 81 l-45 9 63 1 c34 1 77 -5 96 -13z m-146 -214 c9 -7 8 -13 -7
-26 -23 -21 -41 -14 -41 15 0 20 24 25 48 11z m-689 -98 c27 -34 28 -74 2 -74
-30 0 -71 -39 -71 -66 0 -18 -5 -25 -17 -22 -34 6 -40 102 -7 129 8 6 14 21
14 33 0 52 38 52 79 0z m681 -164 c30 -9 33 -8 -130 -55 -69 -20 -134 -39
-145 -42 -11 -3 5 17 35 45 30 28 64 51 75 52 11 0 27 5 35 10 15 10 79 5 130
-10z m-430 -140 c0 -5 -7 -10 -16 -10 -8 0 -12 5 -9 10 3 6 10 10 16 10 5 0 9
-4 9 -10z"/>
<path d="M29032 18989 c-104 -17 -214 -88 -276 -178 -40 -57 -75 -160 -82
-239 -8 -95 13 -185 89 -364 36 -84 70 -170 77 -191 12 -38 34 -57 68 -57 22
0 82 63 82 85 0 20 39 19 61 -1 17 -15 14 -19 -54 -73 -113 -90 -147 -125
-147 -153 0 -54 78 -79 116 -37 10 12 57 51 103 87 63 49 94 67 125 72 34 4
43 10 55 36 20 46 171 132 288 163 27 8 53 25 75 50 18 20 76 63 128 93 115
67 217 143 365 268 213 181 346 266 480 306 33 10 66 23 74 30 20 18 16 63 -8
87 -19 20 -25 20 -76 10 -73 -16 -208 -80 -299 -143 -40 -28 -136 -103 -212
-166 -77 -63 -161 -133 -189 -154 -66 -51 -225 -150 -240 -150 -7 0 -20 20
-29 44 -39 102 -115 156 -243 172 -29 4 -53 9 -53 13 0 3 7 31 15 61 22 81 19
146 -9 205 -27 59 -47 78 -106 103 -58 25 -112 31 -178 21z m-31 -164 c-17
-20 -31 -40 -31 -45 0 -6 -15 -10 -34 -10 -19 0 -45 -9 -62 -22 l-28 -23 24
33 c31 41 118 101 149 102 7 0 0 -15 -18 -35z m205 -110 c4 -24 1 -51 -11 -81
-9 -25 -19 -44 -20 -42 -7 7 8 158 16 158 4 0 11 -16 15 -35z m-16 -263 c0 -5
-6 -17 -14 -27 -13 -18 -14 -18 -9 8 5 24 23 39 23 19z m291 -77 c16 -27 29
-57 29 -66 0 -20 -83 -66 -161 -89 -33 -10 -59 -16 -59 -14 0 2 20 35 45 73
25 38 45 80 45 93 0 13 9 29 20 36 11 7 20 19 20 28 0 26 27 -1 61 -61z m-383
-148 c-6 -20 -18 -37 -25 -37 -11 0 -9 10 8 40 27 48 32 47 17 -3z"/>
<path d="M22456 18196 c-56 -21 -96 -63 -96 -101 0 -63 59 -84 112 -40 39 33
73 32 109 -4 33 -33 39 -83 15 -117 -13 -16 -24 -19 -88 -15 -168 8 -161 8
-175 -21 -9 -18 -10 -34 -4 -52 14 -35 73 -50 198 -51 118 0 143 11 181 86 19
37 23 56 20 116 -3 61 -8 78 -33 114 -52 75 -161 113 -239 85z"/>
<path d="M25310 17948 c-22 -24 -66 -78 -98 -120 l-57 -78 -66 0 c-129 0 -228
-50 -214 -108 10 -45 31 -53 112 -46 l73 7 -31 -60 c-27 -53 -29 -63 -19 -84
7 -13 18 -27 24 -31 19 -13 63 -9 76 7 11 14 14 13 27 -5 10 -14 25 -20 49
-20 51 0 74 16 74 49 0 23 8 32 44 52 l44 23 38 -29 c22 -16 58 -47 82 -69 51
-47 94 -53 124 -16 22 27 19 40 -28 117 -19 31 -34 62 -34 69 0 6 28 21 63 33
92 33 111 44 121 73 7 20 5 33 -8 53 -18 27 -18 27 -104 19 -152 -14 -144 -16
-159 41 -7 28 -13 69 -13 92 0 32 -5 46 -22 57 -35 25 -56 19 -98 -26z"/>
<path d="M28675 17732 c-65 -31 -146 -111 -163 -161 -8 -22 -7 -36 4 -56 8
-15 14 -32 14 -38 0 -26 203 -349 223 -356 37 -14 87 16 87 52 0 10 -47 97
-104 193 l-105 173 27 29 c29 31 89 65 135 76 38 9 53 45 36 82 -20 42 -75 44
-154 6z"/>
<path d="M30623 17485 c-69 -30 -95 -124 -48 -171 23 -23 32 -25 86 -22 56 3
62 1 70 -19 7 -20 3 -26 -34 -44 -109 -56 -177 -125 -177 -181 0 -28 31 -58
60 -58 27 0 110 59 120 85 5 14 26 33 46 42 34 17 36 17 45 0 18 -31 46 -39
78 -23 27 15 48 57 36 76 -3 5 26 25 65 46 117 61 148 102 120 155 -6 10 -17
19 -26 19 -8 0 -19 11 -25 24 -14 29 -35 36 -116 36 -38 0 -92 10 -140 25 -89
28 -115 30 -160 10z"/>
<path d="M40658 17279 c-30 -17 -21 -61 36 -175 63 -128 149 -262 231 -357 62
-74 89 -90 120 -74 54 27 48 71 -20 149 -78 88 -168 226 -222 338 -26 52 -53
103 -61 113 -17 19 -57 22 -84 6z"/>
<path d="M36691 17195 c-157 -35 -298 -137 -336 -243 -33 -92 -40 -96 -157
-103 -112 -6 -169 -27 -249 -90 -93 -73 -184 -265 -196 -412 -6 -64 -8 -68
-27 -63 -12 3 -52 9 -91 12 -166 14 -328 -64 -397 -193 -29 -53 -54 -160 -45
-193 4 -14 1 -20 -6 -17 -167 64 -489 0 -842 -167 -369 -175 -657 -452 -821
-788 -22 -46 -26 -63 -18 -84 15 -43 34 -49 97 -34 119 28 205 0 409 -136 71
-47 153 -96 181 -109 158 -69 339 -60 621 32 l142 46 48 -37 c32 -24 80 -46
149 -67 117 -36 154 -64 187 -142 32 -74 24 -126 -33 -223 -65 -112 -90 -194
-84 -270 12 -160 137 -305 301 -349 143 -39 305 -2 577 131 134 66 149 76 149
99 0 30 11 32 36 4 14 -16 19 -43 24 -133 8 -135 33 -198 106 -266 110 -101
250 -135 519 -127 259 8 339 36 385 134 41 85 54 99 112 112 29 6 78 25 108
42 53 29 55 29 86 13 38 -21 79 -13 95 19 7 12 13 44 14 71 2 64 18 72 92 51
73 -21 127 -49 232 -119 121 -81 191 -100 340 -93 251 11 502 114 547 224 8
18 14 65 14 105 0 53 7 92 26 143 52 138 59 178 45 226 -29 99 -120 143 -309
154 -151 8 -175 27 -148 118 25 84 48 113 108 135 92 34 112 36 123 10 6 -14
29 -30 58 -40 73 -27 133 -73 185 -141 154 -203 299 -298 551 -364 130 -34
326 -42 466 -19 277 46 541 186 772 411 81 79 103 107 103 128 0 35 -32 67
-67 67 -40 0 -123 42 -162 81 -49 50 -94 154 -140 326 -47 176 -86 261 -170
365 -268 333 -766 486 -1199 369 -48 -13 -69 -43 -58 -85 10 -41 37 -49 105
-31 383 99 835 -45 1063 -339 21 -26 -1 -9 -60 46 -200 189 -417 280 -667 280
-118 0 -205 -16 -322 -58 l-72 -26 -58 22 c-32 12 -90 24 -130 27 -71 6 -71 6
-77 38 -9 47 -59 120 -107 154 -44 32 -137 71 -169 71 -30 0 -24 16 13 37 154
91 248 292 217 464 -42 230 -258 409 -497 409 -100 0 -132 -16 -233 -114 -114
-111 -151 -130 -260 -131 -72 0 -94 4 -143 27 -116 55 -210 178 -267 352 -40
122 -125 186 -316 237 -104 28 -375 36 -473 14z m295 -120 c140 -9 233 -45
317 -123 39 -37 63 -73 110 -172 51 -105 71 -136 126 -191 99 -98 218 -149
351 -149 118 0 188 27 284 109 77 65 182 120 245 128 42 5 60 1 115 -25 83
-39 158 -109 193 -181 24 -48 28 -68 28 -141 -1 -71 -5 -93 -27 -135 -42 -81
-109 -134 -269 -216 -115 -58 -156 -85 -203 -131 -32 -32 -71 -65 -87 -74 -62
-31 -73 -88 -24 -120 21 -14 45 -60 45 -87 0 -6 -21 -7 -53 -4 -59 7 -97 -10
-97 -43 0 -18 -1 -18 -47 0 -27 11 -56 21 -66 24 -16 5 -11 14 33 63 185 208
211 423 67 549 -171 149 -408 117 -618 -82 l-57 -55 -30 43 c-16 24 -54 88
-83 143 -70 134 -120 205 -171 250 -151 131 -388 130 -582 -2 -115 -79 -174
-175 -191 -317 l-7 -56 -39 34 c-52 44 -98 56 -210 54 -104 -1 -136 10 -157
58 -38 82 25 301 116 405 64 72 116 93 254 99 113 5 118 6 148 35 17 16 48 65
70 108 22 43 47 88 54 99 20 28 78 66 129 84 48 18 164 33 217 28 19 -2 71 -6
116 -9z m-76 -671 c92 -42 136 -99 281 -358 60 -108 132 -186 170 -186 30 0
33 2 106 92 100 122 233 185 334 158 55 -15 176 -94 184 -121 8 -23 -1 -113
-16 -171 -11 -44 -96 -143 -186 -219 -35 -29 -63 -57 -63 -64 0 -6 -16 -19
-35 -28 -43 -20 -118 -88 -156 -141 -18 -24 -30 -34 -33 -25 -88 295 -253 460
-497 494 -97 14 -252 -39 -319 -108 -19 -20 -40 -37 -47 -37 -21 0 -131 130
-169 203 -38 70 -39 74 -39 177 0 122 16 167 87 239 113 114 274 153 398 95z
m-1150 -234 c0 -18 65 -83 97 -97 18 -7 84 -20 146 -28 126 -16 177 -31 177
-50 0 -9 -27 -11 -117 -7 -143 6 -210 -9 -332 -70 -144 -73 -151 -110 -42
-219 49 -48 89 -76 156 -109 120 -58 161 -86 185 -125 46 -74 12 -138 -128
-246 -122 -94 -192 -166 -228 -237 -26 -51 -29 -66 -28 -152 0 -72 5 -108 21
-147 11 -29 18 -54 15 -57 -12 -13 -230 -5 -286 9 -110 29 -177 96 -192 193
-12 81 24 173 141 353 36 55 71 112 80 128 8 16 26 32 39 35 31 8 43 45 25 78
-8 14 -12 50 -10 93 3 92 -16 149 -87 253 -53 78 -57 88 -60 151 -5 80 12 124
66 177 55 54 129 76 239 72 50 -1 95 1 99 5 10 10 24 9 24 -3z m563 -231 c3
-13 1 -19 -6 -16 -15 5 -22 37 -9 37 5 0 12 -9 15 -21z m-180 -84 c73 -19 142
-54 197 -100 26 -22 52 -35 65 -33 16 2 43 -20 103 -81 l82 -84 0 -54 c0 -72
27 -102 93 -101 60 1 134 -36 251 -124 103 -78 166 -102 260 -100 45 1 69 -4
93 -19 111 -69 94 -160 -52 -298 -94 -87 -172 -122 -290 -130 -56 -4 -99 -11
-107 -19 -17 -17 -13 -113 7 -194 67 -255 291 -417 527 -379 101 16 204 68
262 132 49 55 89 145 84 193 -3 28 3 35 75 85 148 102 272 243 338 385 31 66
59 177 59 236 0 58 -28 172 -55 223 l-25 49 123 -7 c350 -18 503 -58 589 -153
47 -52 62 -100 54 -175 -13 -131 -95 -242 -200 -272 -28 -7 -130 -18 -226 -23
-220 -12 -269 -28 -351 -111 -70 -71 -93 -132 -87 -229 4 -58 10 -75 46 -131
123 -188 60 -329 -167 -376 -36 -8 -128 -17 -204 -21 -130 -7 -139 -8 -154
-30 -12 -19 -13 -30 -3 -58 11 -33 8 -57 -11 -123 -8 -24 -19 -35 -47 -44 -20
-6 -59 -23 -85 -37 l-49 -26 -66 17 c-37 9 -146 55 -242 101 -195 94 -185 91
-353 112 -67 8 -139 19 -159 25 l-37 9 50 66 c156 206 188 430 76 533 l-26 24
29 33 c37 43 75 108 95 163 14 40 14 47 0 68 -11 16 -25 23 -49 23 -39 0 -49
-10 -86 -88 -37 -78 -106 -144 -196 -188 -131 -63 -267 -68 -392 -14 l-51 22
16 34 c13 27 14 38 5 59 -11 24 -17 26 -67 24 -63 -3 -74 4 -98 66 -43 113
-27 212 46 287 23 24 87 74 141 112 152 106 207 172 222 265 16 98 -49 175
-247 292 -116 68 -179 113 -179 129 0 10 87 47 137 59 60 14 174 12 236 -4z
m2592 -105 c61 -29 76 -62 73 -152 -2 -64 0 -72 22 -90 15 -12 31 -17 44 -13
54 16 145 17 198 1 73 -21 147 -87 178 -158 32 -75 26 -189 -17 -278 -73 -157
-187 -247 -348 -275 l-40 -8 26 29 c46 50 89 126 111 197 29 97 23 248 -13
327 -64 138 -152 183 -411 209 -114 11 -166 38 -198 101 -31 61 -27 78 27 101
103 44 267 48 348 9z m-1655 -61 c127 -56 262 -221 294 -359 l5 -26 -127 4
c-116 3 -132 6 -187 32 -33 16 -91 55 -130 86 -74 60 -155 104 -193 104 -21 0
-22 3 -16 38 21 119 209 184 354 121z m877 -335 c106 -87 111 -99 93 -208 -45
-282 -237 -499 -538 -607 -35 -12 -68 -31 -73 -41 -15 -27 -3 -65 25 -83 20
-14 27 -14 66 0 52 18 50 18 50 2 0 -25 -68 -92 -121 -122 -69 -37 -180 -46
-257 -21 -119 40 -218 162 -245 303 -6 30 -5 32 35 38 134 23 278 97 383 196
83 79 121 143 160 274 15 49 38 112 52 138 55 109 169 196 268 206 6 1 52 -33
102 -75z m-2711 -109 c-73 -111 -128 -226 -151 -315 -17 -66 -20 -157 -5 -194
10 -28 10 -29 -14 -20 -9 3 -16 17 -16 30 0 17 -12 32 -40 50 -66 44 -84 149
-39 241 29 61 117 147 199 196 76 44 88 46 66 12z m-1325 -320 c50 -17 155
-93 214 -155 l40 -42 -45 22 c-24 13 -81 48 -125 78 -44 30 -107 68 -140 83
-59 28 -60 28 -24 29 19 0 55 -7 80 -15z m4595 -241 c19 -5 17 -10 -26 -54
-95 -98 -106 -223 -26 -308 52 -57 107 -77 261 -97 162 -22 196 -87 135 -262
-17 -49 -30 -107 -30 -135 0 -45 -3 -50 -42 -78 -59 -43 -117 -67 -231 -97
-83 -21 -115 -25 -200 -21 -116 4 -158 20 -289 105 -42 28 -102 61 -132 74
l-56 23 69 17 c181 46 287 148 307 293 8 57 -11 135 -43 178 -46 62 -65 108
-65 164 -1 77 37 128 122 167 58 26 198 44 246 31z m2203 -104 c34 -14 38 -22
18 -38 -19 -16 -81 28 -112 82 -35 60 -32 62 19 12 25 -24 59 -49 75 -56z
m-5136 -113 c10 -15 40 -31 92 -47 86 -27 102 -42 111 -112 8 -55 -5 -96 -57
-186 -42 -72 -56 -124 -45 -166 9 -36 53 -84 100 -109 37 -20 55 -22 171 -21
l130 1 -120 -58 c-152 -74 -224 -93 -330 -87 -125 7 -220 60 -264 148 -46 91
-30 182 58 335 87 149 107 232 76 308 -12 29 58 24 78 -6z m538 -114 c49 -4
103 0 155 10 159 31 155 31 202 -3 58 -42 69 -69 54 -128 -18 -69 -67 -162
-120 -227 l-47 -57 -230 -3 c-180 -2 -236 1 -257 11 -52 27 -62 77 -27 134 36
58 60 140 66 226 l6 81 61 -19 c33 -11 95 -22 137 -25z m1589 -543 c-19 -13
-30 -13 -30 0 0 6 10 10 23 10 18 0 19 -2 7 -10z m-1106 -55 c156 -17 204 -33
391 -130 66 -34 146 -71 178 -81 31 -9 57 -21 57 -25 0 -15 -85 -82 -129 -102
-41 -19 -65 -21 -221 -22 -197 0 -252 11 -336 67 -75 51 -109 101 -109 156 1
70 15 163 24 157 5 -2 70 -11 145 -20z"/>
<path d="M36600 15301 c-154 -55 -180 -218 -57 -358 78 -88 232 -155 366 -157
83 -1 85 0 100 27 14 24 14 30 1 55 -14 24 -23 28 -90 34 -95 10 -152 29 -217
74 -57 39 -113 114 -113 150 0 37 45 64 106 64 50 0 116 -26 200 -80 31 -19
69 -6 84 30 16 39 -2 68 -67 105 -126 71 -223 88 -313 56z"/>
<path d="M41760 16980 c-199 -146 -210 -156 -210 -191 0 -34 43 -71 69 -61 10
4 98 65 195 137 187 137 202 155 175 204 -28 50 -52 40 -229 -89z"/>
<path d="M29867 16980 c-121 -31 -194 -113 -204 -231 -6 -62 10 -144 38 -200
l18 -36 -41 -12 c-22 -7 -46 -15 -53 -17 -7 -3 -18 9 -26 27 -7 18 -30 59 -52
91 -34 52 -42 58 -73 58 -80 0 -82 -81 -10 -306 24 -77 47 -161 51 -189 10
-68 28 -95 65 -95 34 0 58 21 65 58 17 81 32 110 86 165 32 31 62 57 68 57 7
0 11 -23 11 -57 1 -109 61 -188 167 -219 98 -29 180 -4 242 74 38 49 197 344
217 405 14 43 21 50 68 71 57 25 126 81 126 101 0 7 -10 25 -22 40 -19 25 -26
27 -67 22 -25 -4 -58 -9 -73 -13 -20 -4 -28 -2 -28 7 0 49 -141 137 -285 179
-81 24 -233 34 -288 20z m-57 -292 c0 -45 -3 -59 -10 -48 -15 24 -10 110 6
110 2 0 4 -28 4 -62z"/>
<path d="M41272 16390 c-25 -10 -42 -46 -34 -70 3 -8 29 -41 58 -73 71 -77
110 -134 165 -242 50 -99 74 -119 120 -103 44 15 46 45 6 131 -63 137 -199
322 -259 353 -15 8 -28 14 -30 13 -2 0 -13 -4 -26 -9z"/>
<path d="M40720 16371 c-84 -27 -158 -89 -187 -159 -17 -40 -10 -67 22 -88 34
-22 62 -10 95 44 33 54 57 71 120 87 57 14 79 49 58 93 -10 21 -21 27 -48 29
-19 1 -46 -2 -60 -6z"/>
<path d="M34584 18524 c-56 -20 -115 -73 -145 -128 -22 -43 -23 -48 -9 -74 12
-21 24 -28 53 -30 33 -3 39 0 55 29 24 46 58 76 100 90 42 13 62 34 62 64 0
52 -50 73 -116 49z"/>
<path d="M22405 16871 c-36 -16 -73 -64 -109 -143 -38 -80 -45 -103 -155 -513
-122 -455 -164 -550 -366 -840 -132 -190 -212 -337 -241 -445 -38 -138 -21
-305 41 -415 13 -22 28 -56 34 -76 33 -102 177 -167 501 -224 l156 -27 -9 -92
c-33 -377 -167 -803 -368 -1171 -170 -312 -418 -643 -657 -879 l-80 -79 -64
40 c-190 120 -399 196 -615 224 -103 13 -139 8 -148 -20 -3 -11 -19 -22 -35
-26 -17 -4 -50 -26 -74 -50 -81 -82 -143 -188 -304 -525 -91 -191 -149 -267
-406 -529 -222 -227 -276 -291 -343 -406 -62 -105 -71 -137 -49 -171 l18 -27
113 6 c221 12 403 64 623 178 141 74 179 82 265 58 69 -19 71 -29 35 -248 -28
-175 -30 -196 -17 -220 23 -41 58 -38 141 11 302 179 544 445 651 716 l17 43
49 -40 c27 -23 94 -86 150 -142 72 -72 106 -99 118 -95 131 40 207 66 302 107
529 227 1010 721 1357 1393 375 728 564 1552 524 2286 -14 260 -58 584 -82
605 -15 14 -304 128 -368 146 -25 7 -49 16 -54 20 -27 23 71 895 149 1317 17
94 21 141 15 158 -10 26 -44 44 -71 37 -9 -3 -111 -103 -225 -222 -170 -177
-210 -214 -216 -199 -4 9 -7 73 -7 142 1 85 -4 141 -15 178 -31 107 -120 185
-181 159z m62 -218 c15 -23 19 -57 23 -209 5 -176 6 -183 29 -208 60 -63 151
-11 319 183 63 72 117 131 121 131 4 0 -3 -64 -15 -142 -46 -286 -93 -697
-110 -961 l-7 -109 -31 5 c-17 2 -97 16 -178 31 -81 14 -197 29 -257 32 -92 6
-110 10 -114 24 -7 26 -49 50 -75 43 -17 -4 -43 -47 -112 -182 -111 -220 -211
-389 -293 -495 -35 -44 -75 -99 -90 -120 l-26 -39 -11 27 c-5 15 -10 61 -10
102 0 136 67 284 231 509 238 328 292 460 463 1139 31 120 62 229 71 242 21
32 50 30 72 -3z m-228 -1347 c10 -9 64 -18 146 -26 168 -15 358 -50 515 -95
131 -38 346 -119 367 -139 16 -14 49 -226 64 -411 14 -170 6 -591 -15 -755
-49 -393 -148 -783 -291 -1145 -70 -178 -251 -541 -348 -698 -360 -581 -815
-973 -1325 -1141 l-53 -18 -102 99 c-131 127 -239 213 -407 325 -74 49 -134
92 -133 94 1 3 51 40 110 83 173 126 356 284 523 451 334 334 573 663 765
1055 177 360 277 690 320 1061 27 234 14 669 -25 815 -11 40 -37 54 -75 39
-43 -16 -47 -40 -30 -153 8 -56 18 -178 22 -271 6 -163 6 -168 -13 -163 -10 3
-64 15 -119 27 -141 29 -199 47 -281 86 -117 55 -118 101 -6 255 77 106 212
335 300 506 37 73 69 133 71 133 3 0 12 -6 20 -14z m-1692 -3211 c81 -15 208
-56 298 -94 71 -31 205 -113 205 -125 -1 -17 -232 -208 -388 -320 l-52 -38
-26 59 c-72 162 -160 533 -126 533 5 0 46 -7 89 -15z m-198 -162 c25 -129 88
-332 136 -439 29 -63 33 -79 23 -99 -15 -34 2 -69 44 -91 46 -24 225 -140 270
-176 l37 -29 -30 -71 c-89 -216 -239 -401 -451 -559 -44 -33 -82 -58 -83 -57
-2 2 4 41 12 88 9 51 13 123 11 180 -5 120 -30 173 -98 208 -87 44 -181 23
-327 -71 -103 -66 -180 -103 -296 -142 -104 -34 -311 -75 -323 -63 -9 9 54
101 123 179 32 37 137 144 234 238 104 100 197 201 227 243 80 117 338 553
400 676 31 62 59 109 63 105 4 -5 17 -58 28 -120z"/>
<path d="M24052 16540 c-106 -54 -173 -169 -174 -300 0 -51 -6 -75 -28 -115
-47 -84 -63 -149 -58 -229 6 -88 33 -151 88 -205 64 -62 127 -81 271 -81 114
0 121 -1 144 -25 14 -13 25 -33 25 -44 0 -17 -6 -20 -39 -18 -52 2 -69 -15
-77 -74 -4 -27 -8 -49 -10 -49 -1 0 -14 4 -27 9 -17 7 -35 4 -68 -10 -118 -54
-240 -20 -319 88 -57 77 -63 109 -64 320 -1 178 -2 193 -22 220 -44 60 -146
64 -173 8 -19 -39 2 -78 44 -85 l30 -5 -3 -145 c-3 -108 0 -163 12 -214 46
-196 186 -324 366 -334 71 -4 118 6 203 43 15 6 17 1 17 -41 0 -105 36 -287
95 -477 l15 -49 -58 53 c-93 85 -171 139 -277 190 -115 56 -253 98 -332 102
-49 2 -57 -1 -74 -23 -18 -24 -18 -28 2 -145 73 -425 266 -767 498 -883 98
-50 199 -69 288 -55 71 10 71 11 47 -61 -15 -45 -18 -47 -46 -41 -60 14 -99
-47 -68 -105 8 -15 -3 -30 -73 -95 -102 -96 -149 -159 -177 -232 -16 -43 -52
-221 -70 -343 -1 -3 -9 11 -19 30 -11 19 -36 55 -58 79 -45 51 -85 58 -115 21
-26 -32 -22 -53 18 -101 42 -51 71 -105 90 -171 12 -40 20 -50 42 -54 l27 -5
-8 -181 c-8 -209 -4 -228 58 -228 55 0 62 21 69 210 8 213 42 579 61 652 16
64 46 128 68 146 11 10 27 -8 85 -98 57 -88 73 -123 82 -172 29 -158 120 -326
242 -445 140 -136 312 -234 562 -319 l150 -50 13 -79 c28 -163 82 -320 150
-437 42 -71 148 -187 196 -213 43 -23 84 -14 98 22 14 38 4 58 -50 97 -169
124 -274 395 -287 736 -3 80 -7 155 -10 167 -5 26 -50 44 -82 32 -30 -11 -42
-47 -42 -125 0 -35 -2 -64 -5 -64 -26 0 -244 83 -332 126 -196 97 -334 227
-414 389 -57 117 -72 188 -67 315 4 93 8 115 36 173 43 92 126 177 215 222 61
31 79 35 144 35 129 0 202 -35 431 -208 153 -115 291 -189 417 -222 114 -31
395 -39 552 -16 355 52 724 213 1050 457 99 75 312 279 395 379 l46 55 -10
-54 c-24 -134 -105 -306 -287 -606 -132 -219 -143 -250 -95 -281 24 -16 29
-16 77 1 226 79 480 271 724 546 53 60 98 107 100 105 7 -6 -70 -184 -122
-284 -170 -322 -408 -576 -707 -755 -215 -129 -465 -220 -928 -337 -157 -39
-288 -75 -293 -79 -4 -4 -51 8 -105 26 -53 18 -105 33 -114 33 -12 0 -18 8
-18 23 -1 71 -71 147 -137 147 -67 0 -83 -84 -22 -116 17 -8 29 -17 27 -19 -1
-1 -29 2 -61 8 -54 10 -59 9 -82 -13 -27 -25 -33 -71 -12 -88 6 -5 62 -19 122
-31 61 -11 162 -39 225 -61 l115 -41 -90 6 c-49 3 -108 8 -130 11 -52 7 -78
-12 -78 -56 0 -59 16 -64 244 -78 293 -17 457 -50 504 -102 18 -20 17 -20 -78
-20 -109 0 -137 -14 -137 -69 0 -50 28 -61 160 -61 179 0 350 -36 492 -103 73
-34 93 -65 36 -53 -18 4 -86 9 -152 13 -108 6 -120 5 -132 -12 -19 -26 -17
-62 5 -84 15 -15 40 -20 137 -25 302 -18 467 -53 537 -114 27 -24 21 -28 -46
-29 -88 -1 -121 -18 -125 -64 -5 -57 16 -71 93 -63 106 11 170 -23 246 -130
27 -38 47 -71 45 -73 -2 -2 -35 11 -72 30 -528 265 -1080 414 -1641 443 l-131
6 -26 -25 c-32 -32 -33 -51 -1 -82 22 -23 31 -25 125 -25 276 0 668 -69 1001
-175 232 -75 582 -227 770 -336 42 -24 62 -30 83 -25 95 24 31 260 -110 405
-54 55 -64 71 -64 101 -1 50 -31 112 -75 147 -38 32 -125 63 -228 83 -32 7
-56 14 -53 17 10 10 -25 78 -57 112 -52 55 -235 130 -393 161 -61 12 -62 12
-67 51 -12 92 -84 135 -291 174 -76 14 -140 25 -142 25 -3 0 -4 12 -2 27 3 26
9 28 233 85 400 101 590 165 810 273 235 114 374 215 551 397 258 266 432 576
525 936 34 132 36 172 11 195 -42 38 -64 24 -173 -105 -315 -375 -512 -562
-683 -650 l-40 -20 19 28 c64 99 199 350 234 438 64 162 83 244 83 371 1 119
-11 162 -47 175 -36 13 -63 -7 -116 -87 -263 -392 -655 -677 -1159 -843 -166
-55 -293 -84 -432 -99 -96 -11 -198 -14 -198 -7 0 11 74 164 119 244 28 50 51
97 51 103 0 7 31 45 70 85 38 40 81 96 95 124 35 69 58 166 52 214 -5 36 -1
49 34 101 58 88 91 198 94 319 3 95 4 100 37 145 134 180 161 352 89 571 -41
124 -101 244 -124 248 -48 9 -66 -10 -287 -305 -524 -699 -969 -1253 -1006
-1253 -7 0 -21 -12 -30 -26 -24 -36 -10 -70 46 -109 41 -28 101 -117 88 -131
-3 -2 -35 16 -71 40 -122 82 -256 116 -376 96 -74 -12 -170 -53 -226 -96 -27
-20 -41 -24 -65 -19 -24 5 -30 11 -25 23 14 35 45 166 45 189 0 14 17 42 41
67 33 36 53 48 112 66 199 60 347 202 412 394 33 99 41 192 25 294 -9 63 -10
88 0 116 24 72 -38 112 -159 104 -75 -6 -132 -31 -203 -90 -81 -67 -186 -225
-238 -358 -12 -30 -26 -66 -32 -80 -8 -22 -17 -3 -64 145 -71 222 -112 380
-120 463 l-6 67 138 1 c117 0 148 4 198 22 113 42 219 130 265 221 51 98 65
258 29 312 -12 19 -11 30 4 88 23 90 24 258 2 290 -15 20 -23 23 -64 19 -57
-6 -106 -34 -212 -123 -103 -85 -159 -100 -217 -55 l-24 18 96 47 c265 131
327 275 181 422 -52 52 -98 63 -154 38 -21 -10 -49 -28 -61 -41 l-22 -23 -42
34 c-69 57 -128 78 -230 83 -85 3 -93 2 -153 -28z m267 -125 c77 -43 79 -47
45 -111 -16 -29 -31 -54 -34 -54 -4 0 -11 15 -18 33 -21 58 -54 81 -125 85
-54 3 -70 -1 -122 -27 -32 -16 -61 -28 -63 -26 -6 6 26 60 50 82 65 61 174 68
267 18z m-229 -274 c0 -12 -5 -11 -21 6 -13 13 -18 26 -14 34 6 9 11 7 22 -6
7 -11 13 -26 13 -34z m193 -95 c-5 -43 -3 -47 46 -96 63 -63 125 -92 212 -98
106 -7 160 15 242 101 l67 71 0 -45 c0 -109 -53 -231 -137 -315 -52 -53 -166
-117 -229 -129 l-32 -6 -4 65 c-6 97 -50 148 -144 165 -39 8 -60 6 -95 -6
-111 -39 -232 -1 -277 87 -27 51 -26 124 2 178 l16 31 43 -19 c76 -35 188 -21
248 31 19 15 37 28 40 29 4 0 4 -20 2 -44z m553 -478 c-36 -122 -157 -203
-333 -223 -86 -10 -183 2 -183 22 0 11 6 14 22 10 12 -4 36 0 52 7 17 7 65 21
105 30 109 24 195 70 276 148 39 36 72 65 73 63 2 -2 -3 -27 -12 -57z m1608
-179 c46 -115 58 -254 30 -350 -34 -118 -108 -209 -311 -386 -205 -178 -206
-179 -198 -205 10 -31 25 -45 56 -53 23 -6 44 8 155 102 168 142 159 137 150
77 -22 -164 -170 -319 -354 -370 -50 -14 -64 -22 -68 -41 -9 -36 4 -73 30 -83
31 -11 120 12 199 51 32 17 61 28 64 25 3 -2 -7 -30 -21 -62 -38 -83 -144
-182 -303 -284 -137 -88 -159 -112 -142 -158 5 -12 20 -27 34 -34 22 -10 31
-7 80 26 30 20 55 35 55 32 0 -19 -94 -196 -105 -196 -29 0 -154 44 -215 76
-36 19 -95 56 -131 83 l-65 48 4 61 c6 78 -19 158 -65 211 l-34 40 93 108
c205 238 462 564 837 1066 107 141 197 257 201 257 4 0 15 -19 24 -41z m-2668
-470 c86 -26 216 -94 292 -153 67 -51 157 -145 203 -212 76 -110 159 -325 159
-410 0 -31 -3 -34 -42 -45 -24 -6 -77 -9 -119 -7 -216 13 -396 200 -512 535
-30 85 -77 271 -77 303 0 15 20 12 96 -11z m1214 10 c0 -27 -141 -284 -225
-409 -144 -216 -215 -296 -215 -242 0 9 -3 26 -6 38 -4 15 1 23 19 31 19 9 28
25 37 65 40 169 164 396 259 473 57 46 131 71 131 44z m24 -276 c-21 -115 -98
-234 -195 -304 -25 -18 -19 -5 39 84 39 58 89 140 113 181 24 42 45 76 46 76
2 0 1 -17 -3 -37z m-544 -953 c0 -5 -4 -10 -10 -10 -5 0 -10 5 -10 10 0 6 5
10 10 10 6 0 10 -4 10 -10z m-90 -187 c0 -10 -20 -40 -20 -31 0 3 -3 13 -6 22
-4 11 -1 16 10 16 9 0 16 -3 16 -7z"/>
<path d="M23645 16310 c-33 -37 -95 -145 -95 -166 0 -11 8 -28 18 -37 20 -19
77 -23 87 -7 4 7 12 7 25 0 32 -17 68 -12 84 13 36 57 25 139 -24 189 -33 33
-70 36 -95 8z"/>
<path d="M29767 13680 c-84 -22 -177 -92 -177 -134 0 -24 38 -66 60 -66 7 0
37 16 65 36 58 40 111 55 160 47 27 -4 39 0 59 20 29 29 33 54 13 81 -16 22
-120 31 -180 16z"/>
<path d="M24761 13572 c-19 -9 -44 -29 -55 -44 -16 -23 -18 -32 -8 -53 18 -38
53 -51 91 -32 17 9 31 11 31 6 0 -5 -17 -17 -37 -26 -49 -23 -63 -61 -39 -98
16 -24 23 -27 58 -22 79 11 148 81 148 149 -1 45 -36 104 -73 121 -45 22 -73
21 -116 -1z"/>
<path d="M27314 13128 c-22 -11 -50 -28 -64 -38 -56 -38 -202 -111 -310 -154
-198 -78 -384 -119 -609 -134 -103 -7 -126 -12 -137 -27 -23 -31 -17 -72 11
-91 23 -15 39 -15 162 -5 349 30 663 131 948 304 73 44 95 67 95 97 0 57 -41
77 -96 48z"/>
<path d="M25904 13049 c-64 -82 20 -134 211 -132 76 0 110 5 140 19 36 17 40
23 43 60 5 61 -11 70 -102 54 -70 -12 -127 -10 -236 6 -33 4 -49 2 -56 -7z"/>
<path d="M28835 12485 c-18 -18 -25 -35 -25 -65 0 -22 -9 -66 -20 -97 -11 -32
-20 -65 -20 -74 0 -41 73 -65 103 -34 31 30 72 198 62 246 -5 24 -39 49 -66
49 -5 0 -21 -11 -34 -25z"/>
<path d="M29109 12182 c-69 -25 -91 -44 -91 -75 0 -31 27 -67 51 -67 9 0 40 9
69 20 57 22 109 25 160 11 44 -13 80 1 88 34 10 41 -10 72 -53 84 -56 16 -171
12 -224 -7z"/>
<path d="M28391 12129 c-73 -13 -104 -29 -115 -61 -7 -20 -5 -33 8 -53 16 -24
22 -26 54 -21 21 3 75 9 122 12 55 4 91 12 103 22 22 20 22 64 -1 85 -22 20
-103 28 -171 16z"/>
<path d="M28765 12050 c-12 -13 -21 -52 -30 -127 -12 -99 -12 -110 4 -133 21
-29 58 -37 84 -17 15 10 22 38 33 118 18 134 18 135 -6 159 -25 25 -62 26 -85
0z"/>
<path d="M16808 11496 c-123 -33 -209 -147 -233 -311 -7 -44 -8 -45 -44 -45
-68 0 -140 -29 -191 -76 -124 -116 -156 -357 -67 -506 27 -44 43 -58 100 -87
67 -34 71 -35 217 -39 81 -3 208 1 281 7 219 20 339 73 415 183 l32 48 -3 157
c-2 131 -7 174 -28 254 -27 104 -77 211 -127 274 -89 113 -236 171 -352 141z
m178 -172 c69 -33 170 -193 199 -316 18 -75 19 -178 4 -265 -10 -55 -16 -67
-52 -98 -87 -75 -247 -102 -507 -87 -118 7 -153 13 -188 31 -75 38 -105 120
-85 237 21 121 75 184 159 184 45 0 65 -15 115 -88 51 -74 135 -94 161 -37 13
29 -7 82 -57 149 -27 37 -30 48 -30 117 0 72 2 77 30 102 45 40 144 87 183 87
19 0 49 -7 68 -16z"/>
<path d="M18574 16577 c-205 -118 -447 -329 -607 -529 -128 -161 -151 -202
-129 -234 13 -19 52 -35 72 -29 11 3 58 58 106 121 145 193 283 329 482 471
75 54 91 62 119 57 44 -8 69 2 83 35 13 33 5 95 -17 116 -21 22 -62 18 -109
-8z"/>
<path d="M19077 16265 c-143 -51 -364 -285 -427 -452 -52 -139 -63 -258 -28
-309 41 -59 83 -63 160 -13 20 13 73 44 117 68 201 109 283 215 312 403 18
116 -10 260 -58 297 -30 24 -27 24 -76 6z m16 -179 c8 -57 -6 -141 -35 -207
l-22 -54 -9 44 c-6 31 -21 55 -54 88 l-45 45 24 25 c29 32 117 103 128 103 4
0 10 -20 13 -44z m-294 -437 c1 -3 -15 -13 -34 -22 -39 -18 -40 -16 -29 42 l6
31 29 -23 c15 -12 28 -25 28 -28z"/>
<path d="M18407 15202 c-10 -10 -17 -32 -17 -49 0 -27 10 -38 68 -81 37 -28
176 -160 309 -295 248 -251 306 -297 375 -297 76 0 147 66 242 225 l58 97 -19
27 c-15 19 -29 26 -54 26 -32 0 -38 -6 -99 -97 -36 -54 -74 -104 -85 -112 -27
-21 -74 -20 -106 2 -15 9 -127 119 -250 244 -225 227 -343 328 -384 328 -12 0
-29 -8 -38 -18z"/>
<path d="M20350 14557 c-63 -31 -68 -32 -204 -32 -133 0 -139 -1 -154 -23 -13
-19 -13 -33 -2 -96 7 -41 10 -86 6 -100 -7 -29 -51 -56 -91 -56 -36 0 -79 -44
-70 -73 40 -130 47 -171 35 -208 -11 -33 -11 -42 4 -63 10 -16 16 -46 16 -79
0 -82 46 -112 103 -67 32 25 44 25 52 -1 10 -32 48 -41 123 -29 131 21 266
111 330 219 14 24 36 54 49 67 12 13 23 32 23 44 0 11 10 34 22 51 l22 29 -28
148 c-34 173 -58 256 -82 283 -25 28 -78 23 -154 -14z m82 -139 c-7 -7 -12 -8
-12 -2 0 14 12 26 19 19 2 -3 -1 -11 -7 -17z"/>
<path d="M32009 12666 c-22 -11 -24 -18 -27 -108 -3 -110 7 -131 62 -126 22 2
36 -3 49 -19 26 -32 70 -30 96 3 37 47 24 139 -28 198 -36 41 -118 69 -152 52z"/>
<path d="M30565 13038 c-61 -33 -95 -92 -80 -138 14 -45 96 -45 110 -1 3 11
21 25 41 31 42 14 60 50 43 83 -7 12 -17 25 -23 29 -16 11 -68 9 -91 -4z"/>
<path d="M31103 12979 c-12 -4 -27 -18 -33 -29 -13 -24 -67 -50 -104 -50 -28
0 -46 -25 -46 -63 0 -78 129 -75 216 5 51 47 63 78 41 112 -18 27 -44 36 -74
25z"/>
<path d="M30567 12810 c-19 -16 -45 -30 -59 -30 -13 0 -34 -7 -46 -16 -34 -24
-28 -84 11 -102 82 -39 242 71 206 141 -25 47 -64 49 -112 7z"/>
<path d="M30710 12671 c-134 -57 -164 -85 -140 -128 27 -46 47 -45 176 9 65
27 125 55 132 60 21 18 15 75 -10 92 -12 9 -27 16 -33 16 -5 0 -62 -22 -125
-49z"/>
<path d="M30348 12452 c-61 -61 -71 -90 -44 -127 25 -35 71 -24 127 31 59 57
70 79 57 114 -23 60 -67 55 -140 -18z"/>
<path d="M30475 12348 c-114 -60 -140 -91 -116 -137 20 -36 58 -38 119 -5 98
52 127 99 85 136 -31 26 -50 27 -88 6z"/>
<path d="M34072 47380 c-34 -14 -47 -58 -25 -88 17 -22 1785 -1007 2033 -1132
133 -67 209 -121 252 -179 19 -26 48 -97 78 -190 84 -257 151 -390 291 -571
87 -113 266 -292 309 -310 28 -11 34 -11 58 7 51 38 44 53 -96 191 -251 248
-402 506 -452 772 -23 123 -48 191 -83 228 -33 36 -119 85 -252 145 -66 29
-556 295 -1090 590 -533 294 -977 538 -985 541 -8 3 -25 1 -38 -4z"/>
<path d="M36370 46630 c-11 -11 -20 -28 -20 -38 0 -34 199 -336 349 -532 100
-130 260 -317 276 -324 25 -9 65 12 75 40 13 34 6 48 -111 185 -157 187 -350
455 -461 643 -23 39 -32 46 -58 46 -17 0 -39 -9 -50 -20z"/>
<path d="M37044 46096 c-15 -11 -19 -25 -17 -63 3 -90 99 -352 159 -430 29
-38 71 -44 97 -15 25 28 21 53 -22 134 -45 83 -93 215 -111 303 -7 33 -17 66
-22 73 -14 16 -60 15 -84 -2z"/>
<path d="M24863 45962 c-21 -13 -82 -157 -108 -253 -66 -249 -60 -413 41
-1044 24 -149 28 -199 28 -400 0 -243 -1 -256 -69 -711 -51 -341 -65 -480 -65
-669 0 -351 47 -531 293 -1125 58 -140 131 -320 162 -400 162 -409 318 -644
911 -1365 262 -319 437 -550 557 -732 84 -128 89 -133 122 -133 35 0 65 28 65
61 0 22 -164 266 -296 440 -60 79 -225 285 -367 459 -477 581 -606 767 -799
1155 -130 260 -231 500 -370 880 -119 326 -156 499 -165 756 -7 199 4 310 58
629 84 485 83 481 83 695 0 210 -2 221 -80 710 -25 150 -28 197 -28 400 0 217
2 236 26 327 15 53 42 133 62 178 27 63 33 87 26 105 -14 36 -58 55 -87 37z"/>
<path d="M34095 45316 c-33 -8 -73 -19 -88 -25 -16 -6 -43 -11 -61 -11 -22 0
-40 -8 -56 -25 -13 -14 -28 -25 -33 -25 -5 0 -73 -36 -152 -80 -320 -178 -434
-220 -605 -220 -80 0 -100 -3 -112 -17 -28 -33 -31 -60 -7 -84 20 -20 28 -21
143 -16 142 5 211 24 359 98 55 27 100 49 102 49 1 0 5 -22 8 -49 17 -141 149
-257 337 -297 212 -45 427 68 500 262 30 81 35 133 17 176 -32 77 -110 89
-133 19 -19 -59 -58 -67 -89 -18 -17 27 -29 33 -70 39 -82 11 -115 20 -115 29
0 5 4 9 9 9 5 0 14 13 19 29 13 36 48 43 206 43 248 -1 463 -86 659 -259 65
-58 112 -55 132 8 9 29 -13 58 -100 127 -136 110 -277 180 -446 223 -109 27
-336 35 -424 15z m-230 -338 c7 -7 6 -12 -1 -15 -6 -2 -31 -14 -55 -26 -37
-18 -45 -27 -47 -55 -2 -18 3 -41 10 -50 12 -15 11 -16 -5 -3 -30 24 -57 87
-57 135 0 44 0 45 38 48 37 4 99 -14 117 -34z"/>
<path d="M32802 45230 c-142 -51 -238 -177 -277 -365 -26 -126 -29 -331 -11
-696 15 -276 17 -480 14 -1179 -3 -770 -5 -850 -21 -905 -25 -85 -75 -155
-141 -199 -60 -40 -69 -63 -40 -104 24 -35 71 -29 135 17 96 69 145 159 177
324 15 84 17 178 16 1037 -1 790 -4 985 -19 1190 -24 335 -11 490 50 610 38
75 78 114 147 144 92 40 93 40 96 79 2 27 -2 39 -20 51 -28 20 -40 19 -106 -4z"/>
<path d="M29949 45180 c-68 -11 -205 -60 -268 -96 -25 -15 -114 -71 -198 -125
-204 -134 -349 -199 -441 -199 -12 0 -34 -11 -47 -25 -53 -52 -15 -113 62
-100 106 19 200 55 302 116 34 22 65 39 67 39 2 0 16 -23 30 -52 54 -107 183
-199 325 -233 276 -65 545 99 635 387 l17 57 41 -29 c46 -32 136 -123 186
-188 27 -36 37 -43 63 -40 18 2 38 13 49 29 18 24 19 29 5 55 -26 50 -130 166
-197 221 -81 67 -221 137 -323 163 -93 23 -231 32 -308 20z m291 -149 l65 -16
-1 -48 c-2 -53 -45 -149 -93 -206 l-28 -34 9 64 c5 35 6 73 4 85 -6 24 -48 46
-71 38 -8 -4 -26 -3 -40 0 -19 5 -25 13 -25 34 -1 15 -7 44 -14 64 -7 21 -11
39 -9 42 9 8 134 -6 203 -23z m-585 -151 l0 -60 -35 36 -35 35 30 25 c17 13
32 24 35 24 3 0 6 -27 5 -60z m377 -242 c-16 -16 -218 -25 -208 -9 4 6 15 11
25 11 9 0 48 11 87 24 68 23 69 23 89 5 15 -15 17 -21 7 -31z"/>
<path d="M32876 44779 c-14 -11 -26 -30 -26 -41 0 -18 351 -671 462 -860 54
-92 110 -152 164 -178 37 -18 58 -21 116 -18 60 3 73 7 90 28 13 16 17 32 13
49 -10 40 -21 46 -84 46 -45 1 -67 6 -95 25 -60 40 -131 144 -225 330 -130
257 -320 602 -343 623 -26 22 -40 22 -72 -4z"/>
<path d="M31696 44657 c-18 -13 -18 -27 -2 -373 19 -422 33 -901 42 -1427 7
-411 6 -407 63 -407 15 0 36 9 46 20 17 19 18 46 12 518 -7 512 -18 869 -42
1360 -11 243 -16 286 -31 303 -20 22 -62 25 -88 6z"/>
<path d="M30898 44589 c-10 -5 -18 -16 -18 -23 0 -22 -77 -170 -121 -233 -62
-87 -395 -466 -560 -638 -87 -90 -139 -152 -139 -164 0 -29 35 -61 68 -61 22
0 50 23 146 122 210 217 532 595 623 731 47 70 102 189 103 220 0 42 -61 70
-102 46z"/>
<path d="M28224 43746 c-32 -51 10 -300 80 -473 74 -181 189 -333 466 -619
378 -389 613 -711 864 -1184 88 -165 104 -184 144 -169 58 22 56 52 -13 189
-72 143 -208 374 -308 525 -181 271 -322 441 -622 755 -223 232 -315 351 -390
502 -64 130 -93 235 -101 363 -8 109 -21 135 -69 135 -26 0 -39 -6 -51 -24z"/>
<path d="M35700 43279 c-149 -24 -298 -144 -473 -379 -55 -74 -118 -160 -141
-190 -57 -77 -291 -316 -412 -419 -181 -157 -399 -313 -607 -435 -109 -64
-130 -90 -104 -130 9 -13 26 -27 37 -31 28 -9 132 48 340 186 409 273 712 561
1008 959 174 234 256 302 382 317 59 7 90 30 90 66 0 52 -36 69 -120 56z"/>
<path d="M35546 42340 c-34 -11 -73 -45 -92 -82 -23 -44 -17 -157 15 -297 50
-210 61 -378 40 -569 -21 -195 -76 -390 -161 -573 -22 -48 -38 -95 -36 -104 1
-10 15 -27 30 -38 23 -17 31 -19 53 -9 31 15 86 126 144 295 81 236 106 407
98 660 -5 143 -11 194 -36 302 -32 136 -39 227 -20 268 6 14 28 31 50 40 34
13 39 20 39 46 0 59 -49 83 -124 61z"/>
<path d="M27790 41160 c-26 -26 -25 -46 6 -138 45 -136 154 -324 206 -356 13
-8 24 -6 45 10 44 33 41 63 -13 141 -55 80 -104 183 -133 281 -12 39 -28 73
-37 76 -29 11 -54 6 -74 -14z"/>
<path d="M31422 40694 c-25 -17 -31 -74 -9 -92 13 -11 513 -102 559 -102 44 0
73 60 49 99 -6 9 -101 31 -278 62 -147 27 -275 49 -283 49 -9 0 -26 -7 -38
-16z"/>
<path d="M32055 39334 c-122 -12 -199 -25 -211 -35 -38 -32 -2 -116 77 -178
l47 -38 -39 -12 c-44 -13 -57 -40 -40 -84 13 -33 43 -41 106 -27 28 6 99 16
159 21 60 5 115 14 123 20 18 16 16 74 -3 93 -10 10 -33 16 -63 16 -41 0 -49
3 -59 24 -8 17 -25 29 -54 37 -106 28 -90 34 102 39 182 5 185 5 196 29 15 28
1 76 -24 86 -20 8 -259 15 -317 9z"/>
<path d="M34363 39172 c-43 -28 -166 -409 -207 -642 -29 -167 -29 -177 -6
-200 16 -16 29 -20 48 -15 44 11 54 29 69 132 26 183 97 440 160 583 32 71 33
108 3 132 -24 19 -47 23 -67 10z"/>
<path d="M29173 38312 c-532 -401 -1060 -593 -1522 -552 -199 17 -287 44 -336
102 -27 32 -34 93 -14 130 26 48 -72 -27 -267 -207 -123 -113 -168 -147 -269
-198 -134 -68 -193 -121 -220 -198 -58 -164 60 -308 325 -393 189 -61 332 -81
595 -80 223 0 233 0 320 27 180 56 356 157 550 318 130 108 558 536 664 664
101 122 228 310 282 416 21 44 38 79 37 78 -2 0 -67 -48 -145 -107z"/>
<path d="M33168 37593 c-55 -73 -108 -108 -344 -230 -206 -107 -219 -120 -173
-169 27 -29 50 -30 104 -5 l40 18 10 -35 c17 -58 35 -57 211 12 130 52 161 68
172 90 11 21 11 31 0 54 -17 35 -50 39 -112 12 -72 -31 -69 -25 24 36 103 67
134 95 171 153 35 54 37 85 7 105 -41 29 -64 20 -110 -41z"/>
<path d="M29847 35419 c-18 -14 -27 -30 -27 -50 0 -24 10 -35 68 -73 37 -25
98 -76 136 -115 74 -77 100 -87 136 -51 11 11 20 28 20 38 0 43 -113 162 -215
227 -71 46 -87 49 -118 24z"/>
<path d="M26355 35160 c-9 -10 -15 -27 -13 -37 3 -10 107 -155 231 -321 790
-1057 1506 -2143 2152 -3267 76 -132 143 -243 149 -247 37 -25 96 6 96 51 0
24 -180 341 -438 771 -572 954 -1189 1872 -1861 2770 -224 299 -225 300 -265
300 -20 0 -40 -8 -51 -20z"/>
<path d="M28715 35130 c-9 -10 -17 -30 -17 -42 0 -67 76 -525 90 -540 34 -39
102 -6 102 50 0 40 -76 528 -84 541 -12 18 -71 13 -91 -9z"/>
<path d="M24645 33524 c-509 -138 -1036 -388 -1725 -817 -814 -507 -1509 -984
-2120 -1455 -393 -304 -797 -636 -805 -663 -13 -40 42 -87 82 -72 10 4 83 61
163 128 792 659 1651 1271 2720 1940 688 430 1202 677 1690 811 133 36 166 57
154 98 -7 24 -41 56 -58 55 -6 0 -51 -11 -101 -25z"/>
<path d="M19659 30479 c-115 -27 -242 -105 -309 -191 -45 -56 -50 -90 -18
-112 41 -29 64 -20 130 49 71 75 147 117 253 139 91 19 116 52 79 104 -17 24
-65 28 -135 11z"/>
<path d="M38580 23019 c-567 -290 -1284 -521 -2065 -663 -658 -120 -1419 -194
-2475 -241 -201 -9 -375 -18 -387 -21 -52 -10 -70 -67 -32 -105 19 -19 28 -20
122 -14 56 3 242 12 412 20 1008 49 1744 123 2384 241 796 146 1489 368 2080
664 l161 80 0 34 c0 38 -29 67 -65 65 -11 -1 -72 -28 -135 -60z"/>
<path d="M13806 17478 c-31 -49 -134 -446 -190 -733 -154 -791 -163 -1594 -26
-2412 16 -95 34 -182 40 -193 15 -27 70 -27 95 0 18 20 18 26 -13 213 -40 237
-67 475 -83 716 -15 235 -7 777 15 1001 44 440 126 871 242 1264 32 110 34
120 19 142 -21 33 -78 34 -99 2z"/>
</g>
</svg>
